<?xml version="1.0" encoding="utf-8"?>
<!-- Generator: Adobe Illustrator 25.0.0, SVG Export Plug-In . SVG Version: 6.00 Build 0)  -->
<svg version="1.1" id="Ebene_1" shape-rendering="auto"
	 xmlns="http://www.w3.org/2000/svg" xmlns:xlink="http://www.w3.org/1999/xlink" x="0px" y="0px" viewBox="0 0 100 100"
	 style="enable-background:new 0 0 100 100;" xml:space="preserve">
<g>
	<rect x="42.1" y="9.9" width="3.1" height="3.1"/>
	<rect x="57.9" y="9.9" width="3.1" height="3.1"/>
	<rect x="38.7" y="13.4" width="3.1" height="3.1"/>
	<rect x="54.8" y="13.4" width="3.1" height="3.1"/>
	<rect x="35.6" y="16.4" width="3.1" height="3.1"/>
	<rect x="45.2" y="16.4" width="3.1" height="3.1"/>
	<rect x="54.8" y="16.4" width="3.1" height="3.1"/>
	<rect x="57.9" y="16.4" width="3.1" height="3.1"/>
	<rect x="61.3" y="16.4" width="3.1" height="3.1"/>
	<rect x="38.7" y="19.5" width="3.1" height="3.1"/>
	<rect x="48.3" y="19.5" width="3.1" height="3.1"/>
	<rect x="57.9" y="19.5" width="3.1" height="3.1"/>
	<rect x="61.3" y="19.5" width="3.1" height="3.1"/>
	<rect x="38.7" y="22.9" width="3.1" height="3.1"/>
	<rect x="48.3" y="22.9" width="3.1" height="3.1"/>
	<rect x="54.8" y="22.9" width="3.1" height="3.1"/>
	<rect x="42.1" y="26" width="3.1" height="3.1"/>
	<rect x="45.2" y="26" width="3.1" height="3.1"/>
	<rect x="48.3" y="26" width="3.1" height="3.1"/>
	<rect x="54.8" y="26" width="3.1" height="3.1"/>
	<rect x="57.9" y="26" width="3.1" height="3.1"/>
	<rect x="35.6" y="29.1" width="3.1" height="3.1"/>
	<rect x="42.1" y="29.1" width="3.1" height="3.1"/>
	<rect x="48.3" y="29.1" width="3.1" height="3.1"/>
	<rect x="54.8" y="29.1" width="3.1" height="3.1"/>
	<rect x="61.3" y="29.1" width="3.1" height="3.1"/>
	<rect x="35.6" y="32.5" width="3.1" height="3.1"/>
	<rect x="45.2" y="32.5" width="3.1" height="3.1"/>
	<rect x="51.7" y="32.5" width="3.1" height="3.1"/>
	<rect x="61.3" y="32.5" width="3.1" height="3.1"/>
	<rect x="9.9" y="35.6" width="3.1" height="3.1"/>
	<rect x="13.4" y="35.6" width="3.1" height="3.1"/>
	<rect x="16.4" y="35.6" width="3.1" height="3.1"/>
	<rect x="22.9" y="35.6" width="3.1" height="3.1"/>
	<rect x="26" y="35.6" width="3.1" height="3.1"/>
	<rect x="29.1" y="35.6" width="3.1" height="3.1"/>
	<rect x="32.5" y="35.6" width="3.1" height="3.1"/>
	<rect x="35.6" y="35.6" width="3.1" height="3.1"/>
	<rect x="48.3" y="35.6" width="3.1" height="3.1"/>
	<rect x="51.7" y="35.6" width="3.1" height="3.1"/>
	<rect x="61.3" y="35.6" width="3.1" height="3.1"/>
	<rect x="64.4" y="35.6" width="3.1" height="3.1"/>
	<rect x="67.5" y="35.6" width="3.1" height="3.1"/>
	<rect x="80.5" y="35.6" width="3.1" height="3.1"/>
	<rect x="19.5" y="38.7" width="3.1" height="3.1"/>
	<rect x="26" y="38.7" width="3.1" height="3.1"/>
	<rect x="38.7" y="38.7" width="3.1" height="3.1"/>
	<rect x="45.2" y="38.7" width="3.1" height="3.1"/>
	<rect x="48.3" y="38.7" width="3.1" height="3.1"/>
	<rect x="51.7" y="38.7" width="3.1" height="3.1"/>
	<rect x="57.9" y="38.7" width="3.1" height="3.1"/>
	<rect x="61.3" y="38.7" width="3.1" height="3.1"/>
	<rect x="67.5" y="38.7" width="3.1" height="3.1"/>
	<rect x="74" y="38.7" width="3.1" height="3.1"/>
	<rect x="83.6" y="38.7" width="3.1" height="3.1"/>
	<rect x="9.9" y="42.1" width="3.1" height="3.1"/>
	<rect x="13.4" y="42.1" width="3.1" height="3.1"/>
	<rect x="16.4" y="42.1" width="3.1" height="3.1"/>
	<rect x="19.5" y="42.1" width="3.1" height="3.1"/>
	<rect x="22.9" y="42.1" width="3.1" height="3.1"/>
	<rect x="26" y="42.1" width="3.1" height="3.1"/>
	<rect x="29.1" y="42.1" width="3.1" height="3.1"/>
	<rect x="32.5" y="42.1" width="3.1" height="3.1"/>
	<rect x="35.6" y="42.1" width="3.1" height="3.1"/>
	<rect x="42.1" y="42.1" width="3.1" height="3.1"/>
	<rect x="45.2" y="42.1" width="3.1" height="3.1"/>
	<rect x="48.3" y="42.1" width="3.1" height="3.1"/>
	<rect x="51.7" y="42.1" width="3.1" height="3.1"/>
	<rect x="61.3" y="42.1" width="3.1" height="3.1"/>
	<rect x="64.4" y="42.1" width="3.1" height="3.1"/>
	<rect x="67.5" y="42.1" width="3.1" height="3.1"/>
	<rect x="77.1" y="42.1" width="3.1" height="3.1"/>
	<rect x="13.4" y="45.2" width="3.1" height="3.1"/>
	<rect x="26" y="45.2" width="3.1" height="3.1"/>
	<rect x="38.7" y="45.2" width="3.1" height="3.1"/>
	<rect x="42.1" y="45.2" width="3.1" height="3.1"/>
	<rect x="48.3" y="45.2" width="3.1" height="3.1"/>
	<rect x="51.7" y="45.2" width="3.1" height="3.1"/>
	<rect x="54.8" y="45.2" width="3.1" height="3.1"/>
	<rect x="61.3" y="45.2" width="3.1" height="3.1"/>
	<rect x="67.5" y="45.2" width="3.1" height="3.1"/>
	<rect x="70.9" y="45.2" width="3.1" height="3.1"/>
	<rect x="83.6" y="45.2" width="3.1" height="3.1"/>
	<rect x="86.6" y="45.2" width="3.1" height="3.1"/>
	<rect x="9.9" y="48.3" width="3.1" height="3.1"/>
	<rect x="13.4" y="48.3" width="3.1" height="3.1"/>
	<rect x="16.4" y="48.3" width="3.1" height="3.1"/>
	<rect x="22.9" y="48.3" width="3.1" height="3.1"/>
	<rect x="29.1" y="48.3" width="3.1" height="3.1"/>
	<rect x="42.1" y="48.3" width="3.1" height="3.1"/>
	<rect x="45.2" y="48.3" width="3.1" height="3.1"/>
	<rect x="54.8" y="48.3" width="3.1" height="3.1"/>
	<rect x="61.3" y="48.3" width="3.1" height="3.1"/>
	<rect x="67.5" y="48.3" width="3.1" height="3.1"/>
	<rect x="70.9" y="48.3" width="3.1" height="3.1"/>
	<rect x="80.5" y="48.3" width="3.1" height="3.1"/>
	<rect x="83.6" y="48.3" width="3.1" height="3.1"/>
	<rect x="86.6" y="48.3" width="3.1" height="3.1"/>
	<rect x="13.4" y="51.7" width="3.1" height="3.1"/>
	<rect x="16.4" y="51.7" width="3.1" height="3.1"/>
	<rect x="32.5" y="51.7" width="3.1" height="3.1"/>
	<rect x="42.1" y="51.7" width="3.1" height="3.1"/>
	<rect x="45.2" y="51.7" width="3.1" height="3.1"/>
	<rect x="51.7" y="51.7" width="3.1" height="3.1"/>
	<rect x="54.8" y="51.7" width="3.1" height="3.1"/>
	<rect x="61.3" y="51.7" width="3.1" height="3.1"/>
	<rect x="74" y="51.7" width="3.1" height="3.1"/>
	<rect x="83.6" y="51.7" width="3.1" height="3.1"/>
	<rect x="86.6" y="51.7" width="3.1" height="3.1"/>
	<rect x="9.9" y="54.8" width="3.1" height="3.1"/>
	<rect x="16.4" y="54.8" width="3.1" height="3.1"/>
	<rect x="19.5" y="54.8" width="3.1" height="3.1"/>
	<rect x="22.9" y="54.8" width="3.1" height="3.1"/>
	<rect x="29.1" y="54.8" width="3.1" height="3.1"/>
	<rect x="35.6" y="54.8" width="3.1" height="3.1"/>
	<rect x="51.7" y="54.8" width="3.1" height="3.1"/>
	<rect x="57.9" y="54.8" width="3.1" height="3.1"/>
	<rect x="61.3" y="54.8" width="3.1" height="3.1"/>
	<rect x="64.4" y="54.8" width="3.1" height="3.1"/>
	<rect x="67.5" y="54.8" width="3.1" height="3.1"/>
	<rect x="77.1" y="54.8" width="3.1" height="3.1"/>
	<rect x="83.6" y="54.8" width="3.1" height="3.1"/>
	<rect x="86.6" y="54.8" width="3.1" height="3.1"/>
	<rect x="13.4" y="57.9" width="3.1" height="3.1"/>
	<rect x="16.4" y="57.9" width="3.1" height="3.1"/>
	<rect x="32.5" y="57.9" width="3.1" height="3.1"/>
	<rect x="42.1" y="57.9" width="3.1" height="3.1"/>
	<rect x="45.2" y="57.9" width="3.1" height="3.1"/>
	<rect x="67.5" y="57.9" width="3.1" height="3.1"/>
	<rect x="70.9" y="57.9" width="3.1" height="3.1"/>
	<rect x="9.9" y="61.3" width="3.1" height="3.1"/>
	<rect x="16.4" y="61.3" width="3.1" height="3.1"/>
	<rect x="22.9" y="61.3" width="3.1" height="3.1"/>
	<rect x="29.1" y="61.3" width="3.1" height="3.1"/>
	<rect x="32.5" y="61.3" width="3.1" height="3.1"/>
	<rect x="35.6" y="61.3" width="3.1" height="3.1"/>
	<rect x="38.7" y="61.3" width="3.1" height="3.1"/>
	<rect x="48.3" y="61.3" width="3.1" height="3.1"/>
	<rect x="51.7" y="61.3" width="3.1" height="3.1"/>
	<rect x="61.3" y="61.3" width="3.1" height="3.1"/>
	<rect x="64.4" y="61.3" width="3.1" height="3.1"/>
	<rect x="67.5" y="61.3" width="3.1" height="3.1"/>
	<rect x="70.9" y="61.3" width="3.1" height="3.1"/>
	<rect x="74" y="61.3" width="3.1" height="3.1"/>
	<rect x="80.5" y="61.3" width="3.1" height="3.1"/>
	<rect x="86.6" y="61.3" width="3.1" height="3.1"/>
	<rect x="35.6" y="64.4" width="3.1" height="3.1"/>
	<rect x="42.1" y="64.4" width="3.1" height="3.1"/>
	<rect x="45.2" y="64.4" width="3.1" height="3.1"/>
	<rect x="48.3" y="64.4" width="3.1" height="3.1"/>
	<rect x="51.7" y="64.4" width="3.1" height="3.1"/>
	<rect x="54.8" y="64.4" width="3.1" height="3.1"/>
	<rect x="61.3" y="64.4" width="3.1" height="3.1"/>
	<rect x="74" y="64.4" width="3.1" height="3.1"/>
	<rect x="83.6" y="64.4" width="3.1" height="3.1"/>
	<rect x="35.6" y="67.5" width="3.1" height="3.1"/>
	<rect x="38.7" y="67.5" width="3.1" height="3.1"/>
	<rect x="42.1" y="67.5" width="3.1" height="3.1"/>
	<rect x="45.2" y="67.5" width="3.1" height="3.1"/>
	<rect x="48.3" y="67.5" width="3.1" height="3.1"/>
	<rect x="57.9" y="67.5" width="3.1" height="3.1"/>
	<rect x="61.3" y="67.5" width="3.1" height="3.1"/>
	<rect x="67.5" y="67.5" width="3.1" height="3.1"/>
	<rect x="74" y="67.5" width="3.1" height="3.1"/>
	<rect x="77.1" y="67.5" width="3.1" height="3.1"/>
	<rect x="83.6" y="67.5" width="3.1" height="3.1"/>
	<rect x="86.6" y="67.5" width="3.1" height="3.1"/>
	<rect x="35.6" y="70.9" width="3.1" height="3.1"/>
	<rect x="48.3" y="70.9" width="3.1" height="3.1"/>
	<rect x="61.3" y="70.9" width="3.1" height="3.1"/>
	<rect x="74" y="70.9" width="3.1" height="3.1"/>
	<rect x="77.1" y="70.9" width="3.1" height="3.1"/>
	<rect x="83.6" y="70.9" width="3.1" height="3.1"/>
	<rect x="86.6" y="70.9" width="3.1" height="3.1"/>
	<rect x="35.6" y="74" width="3.1" height="3.1"/>
	<rect x="45.2" y="74" width="3.1" height="3.1"/>
	<rect x="48.3" y="74" width="3.1" height="3.1"/>
	<rect x="54.8" y="74" width="3.1" height="3.1"/>
	<rect x="57.9" y="74" width="3.1" height="3.1"/>
	<rect x="61.3" y="74" width="3.1" height="3.1"/>
	<rect x="64.4" y="74" width="3.1" height="3.1"/>
	<rect x="67.5" y="74" width="3.1" height="3.1"/>
	<rect x="70.9" y="74" width="3.1" height="3.1"/>
	<rect x="74" y="74" width="3.1" height="3.1"/>
	<rect x="80.5" y="74" width="3.1" height="3.1"/>
	<rect x="38.7" y="77.1" width="3.1" height="3.1"/>
	<rect x="42.1" y="77.1" width="3.1" height="3.1"/>
	<rect x="45.2" y="77.1" width="3.1" height="3.1"/>
	<rect x="51.7" y="77.1" width="3.1" height="3.1"/>
	<rect x="57.9" y="77.1" width="3.1" height="3.1"/>
	<rect x="61.3" y="77.1" width="3.1" height="3.1"/>
	<rect x="64.4" y="77.1" width="3.1" height="3.1"/>
	<rect x="70.9" y="77.1" width="3.1" height="3.1"/>
	<rect x="74" y="77.1" width="3.1" height="3.1"/>
	<rect x="35.6" y="80.5" width="3.1" height="3.1"/>
	<rect x="42.1" y="80.5" width="3.1" height="3.1"/>
	<rect x="48.3" y="80.5" width="3.1" height="3.1"/>
	<rect x="51.7" y="80.5" width="3.1" height="3.1"/>
	<rect x="54.8" y="80.5" width="3.1" height="3.1"/>
	<rect x="57.9" y="80.5" width="3.1" height="3.1"/>
	<rect x="61.3" y="80.5" width="3.1" height="3.1"/>
	<rect x="77.1" y="80.5" width="3.1" height="3.1"/>
	<rect x="86.6" y="80.5" width="3.1" height="3.1"/>
	<rect x="35.6" y="83.6" width="3.1" height="3.1"/>
	<rect x="42.1" y="83.6" width="3.1" height="3.1"/>
	<rect x="45.2" y="83.6" width="3.1" height="3.1"/>
	<rect x="54.8" y="83.6" width="3.1" height="3.1"/>
	<rect x="61.3" y="83.6" width="3.1" height="3.1"/>
	<rect x="74" y="83.6" width="3.1" height="3.1"/>
	<rect x="77.1" y="83.6" width="3.1" height="3.1"/>
	<rect x="86.6" y="83.6" width="3.1" height="3.1"/>
	<rect x="35.6" y="86.6" width="3.1" height="3.1"/>
	<rect x="48.3" y="86.6" width="3.1" height="3.1"/>
	<rect x="54.8" y="86.6" width="3.1" height="3.1"/>
	<rect x="61.3" y="86.6" width="3.1" height="3.1"/>
	<rect x="74" y="86.6" width="3.1" height="3.1"/>
	<rect x="77.1" y="86.6" width="3.1" height="3.1"/>
	<rect x="83.6" y="86.6" width="3.1" height="3.1"/>
	<rect x="86.6" y="86.6" width="3.1" height="3.1"/>
	<path d="M10.6,9.9c-0.3,0-0.7,0.3-0.7,0.7V13v3.1v3.1v3.1v3.1v3.1v2.4c0,0.3,0.3,0.7,0.7,0.7h20.9c0.3,0,0.7-0.3,0.7-0.7v-2.4v-3.1
		v-3.1v-3.1v-3.1V13v-2.4c0-0.3-0.3-0.7-0.7-0.7C31.8,9.9,10.6,9.9,10.6,9.9z M29.1,16.4v3.1v3.1v3.1v2.7c0,0.3-0.3,0.3-0.3,0.3
		H13.7c-0.3,0-0.3-0.3-0.3-0.3v-2.7v-3.1v-3.1v-3.1v-2.7c0-0.3,0.3-0.3,0.3-0.3h15.1c0.3,0,0.3,0.3,0.3,0.3V16.4z"/>
	<path d="M26,22.9v-3.1v-2.4c0-0.3-0.3-0.7-0.7-0.7h-8.2c-0.3,0-0.7,0.3-0.7,0.7v2.4v3.1v2.4c0,0.3,0.3,0.7,0.7,0.7h8.2
		c0.3,0,0.7-0.3,0.7-0.7V22.9z"/>
	<path d="M68.2,9.9c-0.3,0-0.7,0.3-0.7,0.7V13v3.1v3.1v3.1v3.1v3.1v2.4c0,0.3,0.3,0.7,0.7,0.7H89c0.3,0,0.7-0.3,0.7-0.7v-2.4v-3.1
		v-3.1v-3.1v-3.1V13v-2.4c0-0.3-0.3-0.7-0.7-0.7C89.4,9.9,68.2,9.9,68.2,9.9z M86.6,16.4v3.1v3.1v3.1v2.7c0,0.3-0.3,0.3-0.3,0.3
		H71.2c-0.3,0-0.3-0.3-0.3-0.3v-2.7v-3.1v-3.1v-3.1v-2.7c0-0.3,0.3-0.3,0.3-0.3h15.1c0.3,0,0.3,0.3,0.3,0.3V16.4z"/>
	<path d="M83.6,22.9v-3.1v-2.4c0-0.3-0.3-0.7-0.7-0.7h-8.2c-0.3,0-0.7,0.3-0.7,0.7v2.4v3.1v2.4c0,0.3,0.3,0.7,0.7,0.7h8.2
		c0.3,0,0.7-0.3,0.7-0.7V22.9z"/>
	<path d="M10.6,67.5c-0.3,0-0.7,0.3-0.7,0.7v2.4v3.1v3.1v3.1v3.1V86v2.4c0,0.3,0.3,0.7,0.7,0.7h20.9c0.3,0,0.7-0.3,0.7-0.7V86v-3.1
		v-3.1v-3.1v-3.1v-3.1v-2.4c0-0.3-0.3-0.7-0.7-0.7C31.8,67.5,10.6,67.5,10.6,67.5z M29.1,74v3.1v3.1v3.1v3.1c0,0.3-0.3,0.3-0.3,0.3
		H13.7c-0.3,0-0.3-0.3-0.3-0.3v-2.7v-3.1v-3.1v-3.1v-2.7c0-0.3,0.3-0.3,0.3-0.3h15.1c0.3,0,0.3,0.3,0.3,0.3V74z"/>
	<path d="M26,80.5v-3.1V75c0-0.3-0.3-0.7-0.7-0.7h-8.2c-0.3,0-0.7,0.3-0.7,0.7v2.4v3.1v2.4c0,0.3,0.3,0.7,0.7,0.7h8.2
		c0.3,0,0.7-0.3,0.7-0.7V80.5z"/>
</g>
</svg>
