<svg xmlns="http://www.w3.org/2000/svg" viewBox="0 0 805 418.44"><defs><style>.cls-1{fill:#68b651;}.cls-2{fill:#bfd9a0;}.cls-3{fill:#21990c;}.cls-4{fill:#67b64f;}.cls-5{fill:#9dcb81;}.cls-6{fill:#4dd1ae;}.cls-7{fill:#6ad6b4;}.cls-8{fill:#9ee0c0;}.cls-9{fill:#c0e6c7;}.cls-10{fill:#2acba6;}.cls-11{fill:#00c39d;}.cls-12{fill:#9fe0c0;}.cls-13{fill:#d4e2b3;}.cls-14{fill:#1d9702;}.cls-15{fill:#d5eacc;}.cls-16{fill:#229a0c;}.cls-17{fill:#dae4b8;}.cls-18{fill:#e5e9c2;}.cls-19{fill:#c7dca7;}.cls-20{fill:#d3e1b2;}.cls-21{fill:#41a105;}.cls-22{fill:#4da824;}.cls-23{fill:#abd18e;}.cls-24{fill:#d6e2b4;}.cls-25{fill:#229a0d;}.cls-26{fill:#c9dda9;}.cls-27{fill:#90ddbd;}.cls-28{fill:#7bd9b8;}.cls-29{fill:#d1d66d;}.cls-30{fill:#aebe10;}.cls-31{fill:#4aa823;}.cls-32{fill:#cfe9cb;}.cls-33{fill:#b7e4c5;}.cls-34{fill:#c8dca7;}.cls-35{fill:#dfecce;}.cls-36{fill:#f1edcd;}.cls-37{fill:#ebeac7;}.cls-38{fill:#b1d57c;}.cls-39{fill:#e5e8c2;}.cls-40{fill:#dbebcd;}.cls-41{fill:#c9e7ca;}.cls-42{fill:#e6edd0;}.cls-43{fill:#eceed1;}.cls-44{opacity:0.27;}.cls-45{opacity:0.4;}</style></defs><g id="Layer_2" data-name="Layer 2"><g id="Layer_1-2" data-name="Layer 1"><path class="cls-1" d="M401.55,159.59l5-6.53.89-1.18a8.19,8.19,0,0,1,1.1,2.89,10.07,10.07,0,0,1-.69,4.87c-2.76,16.21-6.53,32.21-10.78,48.09-3.58,13.4-8.13,26.5-12.37,39.69a46.54,46.54,0,0,0-3.45,8.51A354.9,354.9,0,0,1,339.59,336a320.37,320.37,0,0,1-36.16,42.37c-1.65,1.64-3.71,2.78-5.41,4.37-1.88,1.7-3.62,3.53-5.38,5.36-8.06,7-16.49,13.46-25.18,19.62-45.37,15.13-90.36,14.39-135-3.13.77-2.62,2.9-1.92,4.65-1.79,30.39,2.29,59.35-3.49,87.33-15.13,19.2-8,36.31-19.24,52.14-32.58,27.24-22.75,47-51.4,64.38-81.91,13.21-24.34,24-49.76,33.89-75.58a19.39,19.39,0,0,0,1.27-5c.74-3.23,3.54-5.11,5.11-7.8,2.59-3,5.07-6,7.37-9.27C392.94,170.23,396.94,164.67,401.55,159.59Z"/><path class="cls-2" d="M402.42,297.7c-9.3,9.85-14.64,18.54-21.51,25.9-22.08,23.68-33.34,35.72-44.16,45.15-7.44,6.47-13.8,11.49-18,14.72,1-1.38,2.56-3.59,4.45-6.38,1.21-1.81,2.05-3.14,2.23-3.36,4.75-5.86,9.69-11.58,14.32-17.55a600.41,600.41,0,0,0,51.32-77.69A615.63,615.63,0,0,0,438.36,169a462.25,462.25,0,0,0,13.44-50.75,58.6,58.6,0,0,1,2.38-8.94,9.85,9.85,0,0,1,1.15-2c13.07-12,28.2-21,43.5-29.61,6.62-3.75,13.21-7.89,20.88-9.46,3.55,2,.4,3.47-.58,4.63-6.82,8.07-14,15.8-20.53,24.15a220.56,220.56,0,0,1,31.48-33.17,14.19,14.19,0,0,1,5-2.51c18.17-6.4,36.69-11.31,55.94-13,5.93-.52,11.86-1.57,17.85-.92,2.21,2.45-.37,2.71-1.65,3.22-6.68,2.71-13.2,5.76-19.62,9a321.33,321.33,0,0,0-71.7,49.61c-29,26.56-50.42,58.19-63.29,95.43a152.42,152.42,0,0,0-6.67,29.56,8.19,8.19,0,0,1-.36,1.46c-3.57,6.91-8.81,12.76-12.58,19.56-1.48,1.43-2.36,3.35-3.77,4.82-.91.94-1.84,2.95-3.55.78,1.46-17.29,5.59-34,11-50.42,3.42-10.36,7.51-20.48,11.76-30.53,1.51-2.94,2.64-6.08,4.34-8.93a57.12,57.12,0,0,0-3.92,8.2c-12.59,28.92-21.67,59.13-32.66,88.65-2.37,6.38-5.74,12.44-6.85,19.28C408.19,291.39,405.36,294.58,402.42,297.7Z"/><path class="cls-3" d="M277.91,355.34a162.93,162.93,0,0,1-30.07,22.14c-19.06,11.13-39.35,19.27-61.08,23.36C170,404,153,406.29,135.83,403.9c-1.14-.16-2.42-.44-3.34.69-15.84-6.65-31-14.55-45-24.58a184.41,184.41,0,0,1-33.16-30.08,273.49,273.49,0,0,1-25.05-34.79,59.88,59.88,0,0,1-3-6.32,54.82,54.82,0,0,1-3.49-20.91,28,28,0,0,0-.27-7.43,3.55,3.55,0,0,1,.41-2.31c3.24-1,4.12,1.85,5.43,3.55,13.25,17.37,30.13,30.44,49,41a166.1,166.1,0,0,0,34.75,14.18,15.23,15.23,0,0,1,5.12,2.2c10.6,7.14,22.35,12.05,34,17.08a143.46,143.46,0,0,0,59.63,12,166.37,166.37,0,0,0,59.33-11.53C272.6,355.74,275,353.7,277.91,355.34Z"/><path class="cls-4" d="M762.24,73.89c11,13.15,18.35,28.31,24.72,44,2.67,6.56,5.79,13,6.31,20.24,4,15.57,2.9,31.42,2.43,47.22a9.13,9.13,0,0,1-1,4.45c-1.93,1.78-2.21-.11-2.67-1.28-11.41-29.4-32.34-50.4-58.68-66.66-28.3-16.12-58.4-25.06-91.3-24A181,181,0,0,0,573,114a177.06,177.06,0,0,0-28.86,16.25c-15.75,10.94-26.69,23.1-36.59,33.91-2.74,3-1.67,1.93-5.86,6.56-21.79,24.11-30.65,30-43.07,47.36-1.22,1.71-3.34,4.74-5.84,8.68a49.91,49.91,0,0,1,2.35-10.19s4.3-11.87,20.66-30.36a24.8,24.8,0,0,0,3.09-3.77,10.17,10.17,0,0,1,.82-1.13,29.69,29.69,0,0,0,2.94-3.83c5.8-6.72,11.46-13.57,17.54-20a353.33,353.33,0,0,1,48.5-44.36C585.45,85,626.3,66.16,672.39,59.41a21.26,21.26,0,0,1,3.09-.16c6.48-.61,12.52,1,18.45,3.51,23.26,9.64,44.84,21.87,63.62,38.95C765,108.44,771.29,116,778.16,124c-4-14.5-9.4-27.82-17.09-40.17-2.16-3.48-5-6.55-6.41-10.48.1-2.39,1.67-2,3.17-1.65A19.9,19.9,0,0,1,762.24,73.89Z"/><path class="cls-5" d="M455.06,109a511.13,511.13,0,0,1-22,80,600.23,600.23,0,0,1-33.12,75.73c-18.53,35.26-36.31,60.72-50,80C339.9,359,331,370.6,324.36,379.07a78.14,78.14,0,0,1-14.05,9.6c-3.67,2-7.63,4.3-15.15,7.73-6.8,3.11-16.12,7.11-27.7,11.32,1.26-1,3.15-2.36,5.41-4.11a335.6,335.6,0,0,0,42.59-38.23,248.06,248.06,0,0,0,23.7-29.31c34.81-51,54.49-121.81,54.49-121.81a500.23,500.23,0,0,0,12.91-61.06c10.5-16.52,21.57-32.65,33.5-48.17,6.09-7.93,11.68-16.31,19.15-23.11,2.24,2.56,1.07,5.33.49,8.06a9,9,0,0,1-.64,2.26c-5.2,8-10.54,15.93-15.21,24.66C447.56,113.81,450,109.61,455.06,109Z"/><path class="cls-6" d="M.41,192.55c1.33-26,8.09-50.66,17.19-74.82a15.71,15.71,0,0,1,1.56-2.55,71.38,71.38,0,0,1,9.06-6.38c1.36-.88,2.76-2.16,4.57-.83-.71,7.22-4.51,13.58-5.5,20.23,8.71-13.56,21.46-23.79,33.9-34.34,2.83-1.82,5.6-3.73,8.93-4.58a294.37,294.37,0,0,1,33.17-7.14c35.34-5,69.7-2,103.21,10.77,17.57,6.72,46.79,18,69.94,45.26a129.71,129.71,0,0,1,14.31,20.6c-.95-1-2.44-2.53-4.33-4.35-18.28-17.63-36.43-26.14-52.61-33.56-9.84-4.52-18.86-7.89-30-9.7-1.08-.18-2-.3-2.59-.39l-1.52-.74a139.65,139.65,0,0,0-31.3-7.85c-23.82-3.08-46.89.43-69.34,8.32-20.47,7.2-38.42,18.69-55,32.63C33.57,151.92,18,165.44,6.19,188.32a128.27,128.27,0,0,0-6.16,14C.16,199.06.28,195.8.41,192.55Z"/><path class="cls-6" d="M747.47,352.18c-10.59,12.74-23.41,22.88-37.21,31.85-18.7,12.15-38.51,21.84-60.37,27-10.8-.72-20.58-5.17-30.46-8.88-25.42-9.52-48.28-23.46-69.24-40.73a236.63,236.63,0,0,1-55.71-66.63,251.7,251.7,0,0,1-13-26.21c-.86-2-2.82-4.27,0-6.36a2.73,2.73,0,0,1,2.66,1.2c7.3,9,14.84,17.78,22.39,26.58,6.1,10.17,13.61,19.25,21.61,28,4.15,4.53,9.33,8.11,12.43,13.6,6.47,8,14.8,13.79,23.28,19.2,23.06,14.72,48.24,23.66,75.63,26,31.53,2.66,61.37-3.6,89.78-17.24,4.33-2.07,8.57-4.34,12.92-6.38C743.82,352.29,745.46,351,747.47,352.18Z"/><path class="cls-7" d="M481.83,262.59c-1.48,1.17-.7,2.39-.14,3.66,11,24.82,24.53,48,42.77,68.35,22.42,25,48.54,45,78.95,59.27a254.15,254.15,0,0,0,44.26,16.07,13.14,13.14,0,0,1,2.22,1,141.24,141.24,0,0,1-15.8,4.23c-16.34,3.39-29.72,3.17-40,3-4.49-.1-10.8-.37-18.39-1.14-21.52-14.77-39.64-33-56.18-53.17-24.45-29.74-40.42-63.91-53.72-99.59-3-8-6.16-16-8.09-24.38-4.44-11.5-4.64-14.22-4-14.55,1.14-.57,5.35,5.94,11.39,14.23,7.74,10.6,14.53,18.7,19,23.81Z"/><path class="cls-8" d="M453.75,225.33a373.84,373.84,0,0,0,37.11,93.13c16.5,29.14,27,41.47,39.09,55.64,12.73,14.91,27.39,27.66,42.8,39.64,1.14.89,2.87,1.4,3,3.28l-21.63-4.19a306.39,306.39,0,0,1-48-39.39c-21-21.05-34-40.39-50.29-64.41-13-19.27-22.89-35.81-29.44-47.32Q440,243.52,453.75,225.33Z"/><path class="cls-9" d="M427.88,259.66c3.42,6,8.64,15,15.27,25.72,25,40.56,38.8,59.58,53.5,76.15C512.31,379.16,530.26,394,549,408c1.85,1.39,4.18,2.39,5.07,4.83a237.34,237.34,0,0,1-83.41-40A184.54,184.54,0,0,1,444.58,349c-4.5-5-7.46-8.86-10-12.08-7.11-9.13-17.66-22.3-32.19-39.2l13.22-19.76q5.39,7.55,10.75,15.1c2.69,3.35,5.1,6.35,7.16,8.94,26.4,33.19,34.29,44.39,50.24,58,2.74,2.34,6.1,3.86,7.74,5.93,1.33,1.09,1.43,0,1.11.57-.08.15-.24.13-.47-.08a269.61,269.61,0,0,1-44.82-52.08c-5.87-10-15-24.8-27.54-42.66Z"/><path class="cls-10" d="M747.47,352.18c-10.23,4.79-20.29,10-30.71,14.28-16.83,7-34.55,10-52.69,11.73-22.07,2.09-43.15-1.58-63.86-8.43a160.37,160.37,0,0,1-56-32.21c-1.83-1.6-4.67-2.77-4.57-6,2.46-.6,3.58,1.53,5.14,2.65,3.71,2.67,7,5.83,11,8.22A111.36,111.36,0,0,0,587,357.59a24.55,24.55,0,0,1,7.11,2.88c9.59,4.08,19.82,5.43,30,6.78,25.95,3.42,50.52-2.09,74.17-12.42A168.39,168.39,0,0,0,751,318.54c22.5-22.82,39.25-49.35,48.1-80.49.56-2,.36-4.6,3.13-5.37a178.07,178.07,0,0,1-11.27,49C780.73,307.8,766.79,331.65,747.47,352.18Z"/><path class="cls-11" d="M802.24,232.68c-4.66,14.3-9.12,28.68-16.62,41.85-14.21,24.94-32,46.7-55.6,63.46-16.92,12-35.06,21.4-55.15,26.6-19.66,5.08-39.57,7.24-59.73,2.69-7.4-1.66-15.11-2.22-21.93-6,4.28-2.33,8.15.69,12.23.91a133,133,0,0,0,68.39-5.35c31.94-11,57.36-31,78-57.38,3.56-4,6.15-8.6,9-13.07,16.11-25.87,25.69-54.05,30-84.15.56-4-.09-8.26,2.52-11.81a119.64,119.64,0,0,0,1.39-25.81c-.57-8.81.28-17.7-1.43-26.44,5.44,15.7,7.86,32,10.16,48.39.42,3,.82,6.05,1.23,9.07.44,3.27.46,7.64,0,15.39A213.6,213.6,0,0,1,802.24,232.68Z"/><path class="cls-11" d="M23.47,278.15c.06,1.36.15,3.32.3,5.66.36,5.64.82,9.92,1.29,14.36.3,2.79.71,6.41,1.25,10.65A204.41,204.41,0,0,1,1.83,236L2,233.12c.29-2.14.77-5.22,1.58-8.87,7.16-32.38,27.09-53.4,38.45-64.84C65.3,136,92.9,120.09,125.57,113.75c2.08-.4,4.76-2,6.16,1.33-1.32,2.09-3.63,2.45-5.7,3.08a132.41,132.41,0,0,0-38.18,19.16c-9.89,6.33-17.95,14.73-26,23.13-12.12,12.61-24.06,35.7-31.66,61.11a163.08,163.08,0,0,0-6.69,33.89A146.7,146.7,0,0,0,23.47,278.15Z"/><path class="cls-10" d="M131.48,115c-6.12-1.39-11.68,1.23-17.25,2.8C88.9,124.92,67,137.9,47.74,156,15,186.71,5.37,221.92,3.57,228.68c-.81,3-1.38,5.6-1.74,7.3-.27-2.8-.6-6.55-.91-11,0-.49-.31-5.12-.49-8.86-.35-7.19-.87-14.4.28-21.57,9.84-16,20.2-31.75,33.93-44.78,24.11-22.9,51.73-39.6,84.65-46.5,34-7.12,62.66-.44,76.67,3.69a158.85,158.85,0,0,1,17.19,6.17c-15.7-4-27.89-3.81-36.18-2.85-9.13,1.06-19.88,3.76-38.53,4.51C135.49,114.93,133.06,115,131.48,115Z"/><path class="cls-9" d="M86.15,31.83c22.11-15,46.56-24.06,72.7-29.07A150.83,150.83,0,0,1,187.33,0c35.81,0,68.48,10.9,98.55,30.09a183.3,183.3,0,0,1,21.86,16c6.85,7.17,14.19,13.9,20.06,22,1.08,1.49,3.38,2.84,1.17,5.14-2.5-.22-3.85-2.15-5.38-3.71-25.55-26-56.08-43.29-91.21-52.71-8.66-2.32-17.58-3-26.3-4.86a47.88,47.88,0,0,0-10.22-.32c-6.78,0-13.54.12-20.31,0-3.45.06-6.93-.4-10.33.56a9.15,9.15,0,0,1-1.65.26c-16.29,1.45-31.74,6.18-46.81,12.3a61.41,61.41,0,0,1-6.64,2.68c-2.1.58-.72,1.25-.11,1.93-1.73,2.33-4.31,1.64-6.62,1.81-1.87.13-3.78-.2-5.59.52-2.52.55-5,1.28-7.53,1.7C88.73,33.58,86.74,34.44,86.15,31.83Z"/><path class="cls-12" d="M329.4,72.92c-5.11-8.55-12.17-15.45-18.95-22.61-1.11-1.17-3.36-1.81-2.71-4.19,25.16,19.6,45.66,43.56,64.29,69.2,10.43,14.35,20.52,29,29.52,44.27l-12.28,16.55a437.61,437.61,0,0,1-24.64-46.38c-4.13-9.06-6.38-14.71-11.13-23.41A164.71,164.71,0,0,0,329.4,72.92Z"/><path class="cls-2" d="M458.32,90.5a26.63,26.63,0,0,0,.89-8.57,254.28,254.28,0,0,1,60-52.43A188.58,188.58,0,0,1,548.44,14,202.4,202.4,0,0,1,583.52,3.18c3.16-.69,5.81-1.19,7.68-1.53-1.09.91-2.2,1.86-3.31,2.84-2.13,1.87-4.14,3.73-6,5.56-.46.46-1.19,1.18-2.11,2-33.56,31.49-58.54,20-85.36,42.44C482.72,64.26,472.54,75.35,463,87.14,461.81,88.67,460.92,90.83,458.32,90.5Z"/><path class="cls-7" d="M32.53,108c-3.45.77-5.71,3.57-8.72,5.07-1.51.76-2.54,2.66-4.65,2.1,3.59-10.86,9.28-20.64,15.28-30.3,7-11.25,14.89-21.73,24.86-30.54a18.41,18.41,0,0,1,8.83-3c4.66.83,2.45,3.15.86,4.85q-6.51,7-12.57,14.3a160.72,160.72,0,0,0-21.91,35.36A4.86,4.86,0,0,1,32.53,108Z"/><path class="cls-5" d="M762.24,73.89c-2.68,1.84-4.42-3.41-7.18-1-2.07.41-2.1-1.64-3.09-2.53-15.18-18.74-33-34.28-54.61-45.26-1.36-.69-2.87-1.22-3.61-2.74-.38-2,.68-2.86,2.52-3.07a163.19,163.19,0,0,1,66,54.56Z"/><path class="cls-13" d="M581.85,10.05c1.73-1.66,3.55-3.36,5.47-5.06,1.31-1.16,2.6-2.28,3.88-3.34a168.59,168.59,0,0,1,46.32.28A2.08,2.08,0,0,1,637.39,3c-.37.86-1.37,1.22-2.16,1.74-1.27.83-3.63.33-3.5,2.87-2.8,1-5.51-.55-8.28-.25a207.06,207.06,0,0,0-35.75,3.37C585.7,11.13,583.62,11.73,581.85,10.05Z"/><path class="cls-2" d="M631.78,6.89c-.27-.28-.74-.83-.6-1.33s.87-.71,1.13-.81a41.09,41.09,0,0,0,5.21-2.82c3,.58,6,1.14,9,1.71,0,0,5,1,9,1.85,6.43,1.4,21.4,6.39,40.82,13.84-.59,1.11-2.27,1.48-2.07,3.11-1.78,1.23-3-.45-4.48-.82A285.86,285.86,0,0,0,643.29,8.8Q637.44,7.71,631.78,6.89Z"/><path class="cls-12" d="M68.63,52.28,59.3,54.34c6.63-8.17,15.07-14.25,23.44-20.41,1.07-.79,2.27-1.41,3.41-2.1,4,1.86,7.44-1.92,11.34-1.16a2.12,2.12,0,0,1,2.79-.08c1,1.05-.16,1.85-.86,2.47a35.21,35.21,0,0,1-6.34,4.27c-5.24,2.93-9.63,7-14.43,10.54-1.26.92-1.45,2.18-1.79,3.48C74.37,53.94,71.3,51.29,68.63,52.28Z"/><path class="cls-14" d="M277.91,355.34c-12.63,4.71-25.28,9.12-38.66,11.5-18.15,3.24-36.21,3.88-54.39.79-23.75-4-45.1-14.27-66-25.58a19.26,19.26,0,0,1-2.78-2.21c2-1.78,4.25-.84,6.38-.49,12.86,2,25.67,4.45,38.78,4.25A196.3,196.3,0,0,0,239,326.37a230,230,0,0,0,38.38-21.75c9.92-6.94,21.47-15.07,33.87-28.72a167.21,167.21,0,0,0,11.43-14.06,12.1,12.1,0,0,1,12.15-2.22c5.15,2.08,8.27,8.09,7,14.26a307.37,307.37,0,0,1-39,57C295.17,339.77,287.31,348.35,277.91,355.34Z"/><path class="cls-15" d="M382,185.31,376.31,193c-.54-.71-1.58-2.07-2.85-3.8-26.93-36.65-34.17-66-45.08-81.48-3.56-5-7.5-9.82-11.14-14.81-1.19-1.63-2.77-3.13-2.52-5.44,2-1.57,3.59,0,5,1,5.22,3.6,10.8,6.64,15.84,10.5,1.35,1,2.68,2.15,4.48,2.35,2.69,1.51,3.2,4.8,5.46,6.66,6.56,9.87,12.18,20.3,18,30.59C371.9,153.27,376.55,169.45,382,185.31Z"/><path class="cls-16" d="M338.14,280.5c.24-1,3.05-13.1-3.58-18.83a8.89,8.89,0,0,0-6-2.48c-3.38.15-5.65,2.93-8.24,6.06-9.5,11.47-11.7,13.65-11.61,13.72.39.3,34.74-44.44,41.35-54,.57-.82,3.78-4.69,7.61-10.43,0,0,1.61-2.1,3.29-4.21,6-7.5,13.26-15.37,16.11-18.43a385.26,385.26,0,0,1-33.63,79.45Q340.84,276,338.14,280.5Z"/><path class="cls-9" d="M382,185.31c-4.81-7.4-7.21-15.88-9.79-24.11-3.74-11.95-10.52-22.23-16.07-33.2-3.47-6.86-8.55-12.79-11.34-20,5.57-.1,7.76,5,11.22,7-4.08-7.25-9.12-14.64-13.64-22.37-.75-1.28-1.89-2.59-.67-4.22,6.57,6.56,10.64,14.88,15.95,22.32,4.82,6.73,5.45,15,9.69,22,8.46,13.85,14.81,28.84,21.9,43.42q-1.71,2-3.42,4.19C384.51,182,383.24,183.67,382,185.31Z"/><path class="cls-5" d="M476.79,186.6c-5,8.17-12.53,14.44-16.73,23.15-2.07,4.28-5.07,8.14-5.92,13l-.39,2.61-10.06,13.36a203.05,203.05,0,0,1,10.19-41.51c13.51-37.44,34.68-61.13,46.93-74.77,19-21.12,41.75-37.32,65.44-52.38a247,247,0,0,1,43.5-21.78,3.35,3.35,0,0,1,1.46-1.06c15.23-.67,30.22,1.29,45.11,4.23,4,.79,8,1.83,11.91,2.94,1.89.53,4.16.68,4.8,3.17-.44,2.37-2.47,2.06-4,2.23-40,4.36-75.68,19.67-108.37,42.78-12.08,8.53-22.7,18.79-34.41,27.73-5,2.18-7.84,6.82-11.73,10.27-8.45,7.94-15.83,16.85-23.19,25.76a9.72,9.72,0,0,1-.82,1.12,26.37,26.37,0,0,0-3.42,4.11,9.18,9.18,0,0,1-.77,1.08,19.93,19.93,0,0,0-2.38,3.1,6.51,6.51,0,0,1-.77,1,9.26,9.26,0,0,0-2.4,3.75,7.42,7.42,0,0,1-.86,1.74l0,0C478.85,183.66,477.44,184.86,476.79,186.6Z"/><path class="cls-17" d="M458.32,90.5c9.09-10.38,17.61-21.3,27.88-30.61,26.28-23.82,56.35-40.59,91-48.7a13.61,13.61,0,0,1,2.56-.1c.07,4.18-4.09,4.63-6.12,7-11.12,3.9-22.39,7.32-32.92,12.84-9,4.7-17.43,10.17-26,15.46-1.58,1-3.18,1.87-4.77,2.83,12.78-7.53,26.57-12.54,40.77-16.54,1.64-.46,3.24-1.15,5-.75,3,1.48,1,3.13-.06,4.37a87.82,87.82,0,0,1-10.48,10.47c-7.65,6.11-14,13.45-20.33,20.79-1.3,1.64-3.25.78-4.86,1.26a265.64,265.64,0,0,0-63.91,39.14c-2.48-.21-1.72-2.12-1.55-3.39.55-4.21,1.19-8.42,3.55-12.11Z"/><path class="cls-17" d="M610.72,48.19c-.32,0-.65.05-1,.06-23.52,1.26-46.64,4.61-68.9,12.72-2.06.75-4.09,1.77-6.39,1.66-.61-2.11.92-3.2,2.22-4.2,15.14-11.74,30.54-23.11,47.46-32.25C598,23.44,612,23.49,626,24.36A198.27,198.27,0,0,1,649.87,27a23.7,23.7,0,0,1,6.42,1.65A2.55,2.55,0,0,1,657.42,30c-.25,2.44-2.3,2.75-4,3.29-12,3.7-23.63,8.34-35.29,12.92C615.67,47.11,613.1,47.23,610.72,48.19Z"/><path class="cls-13" d="M426.34,261.71c-2,3-4.87,7.46-8.53,13l-1,1.5c-2.29,3.45-6,8.95-11.3,16.76,12.28-33.38,19.62-53.93,24.26-67.37,1.13-3.25,3.84-10.78,7.77-20.84,3.41-8.7,5.94-17.83,11.38-25.65-1.29,6.95-4.84,13.08-7.16,19.66A346.34,346.34,0,0,0,426.34,261.71Z"/><path class="cls-18" d="M582.91,27.6c-11.45,7.76-23.39,14.82-34.32,23.34-4.81,3.75-10.32,6.71-14.13,11.69l-4.1,2.09c-2.05.75-3.35,3.75-6.21,2,8.23-11.68,20-19.87,29.59-30.21,1-1,3.36-1.47,2.36-3.81-.13-1.65,1.17-2,2.29-2.24,6.88-1.39,13.73-3,20.7-3.88A4.07,4.07,0,0,1,582.91,27.6Z"/><path class="cls-19" d="M458.12,92.43c-.51,5.19-2.8,10.15-2,15.51l-1.05,1.1c-4.62,3-8.46,6.87-12.83,10.38A99.83,99.83,0,0,1,458.12,92.43Z"/><path class="cls-20" d="M524.15,66.76l6.21-2c-2.66,4.09-6.9,6.52-10.33,9.81a222.91,222.91,0,0,0-19.56,21.53,11.61,11.61,0,0,1-3.37,3.13c2-4.87,5.49-8.65,8.75-12.54,4.7-5.6,9.59-11,14.38-16.56a.82.82,0,0,0-.2-1.3C520.93,67.14,523.27,68.42,524.15,66.76Z"/><path class="cls-13" d="M448.9,180.09c0-4.35,2.06-6.74,3.72-9.33C452.5,174,450.54,176.48,448.9,180.09Z"/><path class="cls-21" d="M281.24,301.62a174.35,174.35,0,0,1-25.37,18.19,189.92,189.92,0,0,1-65.59,22.88,176.2,176.2,0,0,1-63.65-1.16c-3.5-.72-7.06-1.13-10.59-1.69-.9-1.64-3.21-.38-4.12-2-13.31-7.18-24.12-17.55-34.45-28.25a206.16,206.16,0,0,1-37.64-54.37,189.91,189.91,0,0,1-10.14-26.4,13.34,13.34,0,0,1-.23-8.51c5.69-22.84,15.75-43.39,31.89-60.75,2.41,3.29.45,6.67,0,9.89a143.37,143.37,0,0,0,5.12,66.08c6.31,19.63,16.58,37.14,31.4,51.32a134.8,134.8,0,0,0,72.16,36,152.72,152.72,0,0,0,57.33-.75,174.33,174.33,0,0,0,24-7.33A244.45,244.45,0,0,0,281.24,301.62Z"/><path class="cls-22" d="M29.46,220.3c.4,8.9,4.24,16.84,7.39,24.89C43.43,262,52.77,277.37,63.7,291.66a205.56,205.56,0,0,0,37.91,37.91c3.49,2.69,6.88,5.5,10.31,8.26a151.54,151.54,0,0,1-51.28-24c-13.53-9.72-26-20.55-35.56-34.42a6.47,6.47,0,0,0-1.61-1.23,185.06,185.06,0,0,1,5-55.59A13.35,13.35,0,0,1,29.46,220.3Z"/><path class="cls-14" d="M620,109c-13.81-.7-27.09,2-40.13,6.26-3,.43-6.34,2.32-8.21-2C600,99.53,630.12,94.38,661.3,96.88a159.9,159.9,0,0,1,73.11,24.44c9.47,9.39,14.57,21.44,19.93,33.26,11.64,25.63,15.54,52.74,14.39,80.65a176.35,176.35,0,0,1-3.13,25.46c-.22,1.18-.49,2.34-1.79,3-2.76-1.6-1.47-4.66-2.47-6.87a216.36,216.36,0,0,0-3.46-30.12C751.23,193.85,737,165.09,712.3,142c-22.49-21.1-48.64-33.67-80-33.66C628.15,108.3,624.1,109.25,620,109Z"/><path class="cls-3" d="M762.27,256.38c1.94,1.69.28,4.3,1.5,6.44a198.25,198.25,0,0,0,3.58-46c-1.26-28.67-9.35-55.39-23.52-80.28-3-5.19-6.27-10.17-9.42-15.25,8.6,4,15.73,10.16,22.75,16.32a136.37,136.37,0,0,1,34.16,45,16.16,16.16,0,0,1,2,7.8A215.88,215.88,0,0,1,763,285.67a15.12,15.12,0,0,1-1.64,1.95c-2.39-2.36-1.64-5.29-1.17-8a27.38,27.38,0,0,0,.49-6.93C761.21,267.26,759.13,261.56,762.27,256.38Z"/><path class="cls-23" d="M752.94,69.85c.71,1,1.41,2.05,2.12,3.08,12.24,14.84,24.79,45,24.21,54-2.31-.63-2.81-2.91-4-4.45C760,103,740.92,88.25,719.5,76.26a246.48,246.48,0,0,0-32.7-14.82c-3.73-1.43-7.47-.48-11.17-1,.49-2.58,2.67-2,4.36-2.31,3,0,6,0,9,0,8.07.09,16.14-.15,24.2,0a65.29,65.29,0,0,1,20.62,4,10.19,10.19,0,0,1,3.71,1.5C742.68,65.58,748.3,66.51,752.94,69.85Z"/><path class="cls-24" d="M679.77,59.4c-1.4.29-3-.25-4.14,1.05-34.35,4.18-66.14,15.81-95.87,33.21-25.43,14.89-48,33.54-68.93,54.15-3.54,3.47-6.34,7.65-10.33,10.7-.95.38-1.31-.21-1.58-1,3.72-6.58,9.4-11.44,14.59-16.74,4-3.64,7.29-8.07,11.82-11.17,14.12-12.16,28.2-24.32,43.87-34.57a237.56,237.56,0,0,1,88-35.28c5-.92,10.12-1.77,15.29-1.32A5.34,5.34,0,0,1,676.57,57C677.92,57.39,679.72,57.26,679.77,59.4Z"/><path class="cls-25" d="M573.72,112.27a4.49,4.49,0,0,0,1.85,2.68,4.73,4.73,0,0,0,4.28.26,289.06,289.06,0,0,0-75.24,52c2.19-2.61,5.34-6.25,9.31-10.43a221,221,0,0,1,32.44-28.24A206.19,206.19,0,0,1,573.72,112.27Z"/><path class="cls-26" d="M503.32,151.32q-.68,3-1.36,6a126.46,126.46,0,0,0-18,19.14c-5.22,6.85-8.7,12.84-8.87,12.73s3.65-7.3,9.37-15.23c3-4.14,5.63-7.27,9.86-12.3C498,157.32,501.1,153.79,503.32,151.32Z"/><path class="cls-7" d="M333.57,201.69a460.31,460.31,0,0,0-43.27-43.28c-.84-1.47-1.85-3.19-3.05-5.09,0,0-.87-1.39-1.76-2.74C271,128.5,236,108.74,236,108.74c-19.45-11.52-40.18-20-62.49-23.91C155.34,81.67,137.05,80,118.44,82c-15.68,1.63-31.15,3.78-46.23,8.41a9.9,9.9,0,0,1-2.56.08c-.39-2.42,1.55-3.28,3-4.26,26.05-17,54.55-27.67,85.14-32.94a39.13,39.13,0,0,1,7.18-.18c11.92,2.14,23,6.88,34,11.58,31.87,13.58,59.45,33.44,83.49,58.17a290.08,290.08,0,0,1,44.83,60.69c2.43,4.34,5.24,8.5,6.87,13.22C334.73,198.26,336.78,200.45,333.57,201.69Z"/><path class="cls-27" d="M165.53,54.33c-13.69,0-26.62,4-39.41,8A205.49,205.49,0,0,0,72.25,88.08c-1,.68-2.1,1.16-2.6,2.36l-8.19,4.18C53.63,99.24,45,102.31,37,106.54c-1,.51-2.72,1.88-3.41-.63C39.32,91.11,48.1,78.2,58.37,66.23c3.43-4,7.1-7.82,10.66-11.72.82-.9,2-1.9-.4-2.23,2.33-2.4,5.93.43,8.26-2C80,48,83.36,47.08,87,49c1,1.71-.38,2.55-1.39,3.32-5.59,4.24-10.51,9.26-14.16,12.5,9.4-6.74,21-13.89,33.87-18.68a10.24,10.24,0,0,1,2.46-.37c17.75-.91,35.16,1.53,52.41,5.41a15,15,0,0,1,4.87,1.54A1.17,1.17,0,0,1,165.53,54.33Z"/><path class="cls-28" d="M33.58,105.91c2.13,1.11,3.45-.8,5-1.52,7.52-3.52,14.72-7.79,22.9-9.77-4.92,6-11.64,10-17.07,15.42a177.61,177.61,0,0,0-18.7,21.74A95.14,95.14,0,0,1,32.53,108,2.25,2.25,0,0,1,33.58,105.91Z"/><path class="cls-29" d="M591.08,316.29c12.11-2.17,24.1-4.53,35.42-9.84,27.87-13.05,48.35-33.21,60.69-61.51a26,26,0,0,1,1.79-3c2.07,2.17.79,4.54.3,6.79-10.2,46-40.63,72.64-83.74,86.83a162.69,162.69,0,0,1-46.37,8.32,8.69,8.69,0,0,1-4.45-.89c-5.73-2.88-10-7.71-15.12-11.38a145.66,145.66,0,0,1-30.7-35.46c-2-3.31-3.84-6.58-5.47-9.77,7.95,6.41,34.65,26.83,66.12,30A119.65,119.65,0,0,0,591.08,316.29Z"/><path class="cls-15" d="M421,269.86c7.05,12.91,22.91,40.69,42.77,64.39,4.5,5.37,13,15.05,23.42,25.83,7.28,7.54,13.7,13.74,18.65,18.38a238.65,238.65,0,0,1-21.67-16.58c-21.88-18.8-35.87-37.7-50.43-57.61-4.41-6-10.79-15-18.1-26.33Z"/><path class="cls-30" d="M554.72,343c26.06-1.49,51.3-6.35,74.63-18.65,22.49-11.85,40-28.81,51-51.91A98.33,98.33,0,0,0,689,241.9c4.14-12,7.42-24.2,7.77-37,1-37.56-13.39-66.79-46.32-86.08-1.32-.77-2.59-1.62-3.89-2.43,1.75-2,3.76-1.09,5.68-.44A85.39,85.39,0,0,1,692,144.15c21.08,26.31,30.33,56.63,28.14,90.16-1.91,29.22-13.61,54.6-32.22,77-20.42,24.59-46.32,40.91-76.33,51.18-2,.69-4.06.3-6,.88l-12.34-2.13c-11.89-4.15-23.9-8.06-34.42-15.29C557.4,345,556.07,344,554.72,343Z"/><path class="cls-21" d="M605.55,363.38c7.31-2.87,14.74-5.47,21.92-8.65,35.09-15.54,62.27-39.8,78.93-74.61,16.54-34.56,17.09-69.82,2.27-105.36C699.61,153,686,135.31,665.54,123.39c-5.77-3.36-11.84-6.93-19-7A113.89,113.89,0,0,0,620,109c6.71-2.6,13.75-2.42,20.66-1.86a109.5,109.5,0,0,1,43.86,13c17.41,9.45,31.74,22.29,44,37.76,18.37,23.15,28,49.85,32.51,78.61a91.48,91.48,0,0,1,1.24,19.92q0,8.26-.07,16.53c-2,9.32-4,18.62-9.26,26.78-25.71,33.92-58.76,56.21-101,64-14.12,2.59-28.24,2.2-42.4.79A23.43,23.43,0,0,1,605.55,363.38Z"/><path class="cls-31" d="M752.94,299.69q4.62-13.4,9.26-26.79c.37,5-1.85,9.74-.87,14.72A50.2,50.2,0,0,1,752.94,299.69Z"/><path class="cls-30" d="M137.64,277c14.1,15,30.37,26.7,50,33.37a120.13,120.13,0,0,0,24.75,5.6,116.7,116.7,0,0,0,49.26-5.2,101.74,101.74,0,0,1-20.48,9.41,116.94,116.94,0,0,1-16.88,4c-30.41,5.24-60.09,2.45-88.42-10.27-32.09-14.39-55-37.76-68.11-70.62-8.06-20.15-10.3-41.08-9.26-62.47.35-7.13,1.88-14.2,2.87-21.3,7.6-8.66,15.73-16.72,25.58-22.86,1.56,2.41.6,5,.4,7.48-1.85,22.17-1.45,44.09,5,65.67a130.8,130.8,0,0,0,37.89,60.1C132.79,272.24,134.63,275.25,137.64,277Z"/><path class="cls-29" d="M137.64,277c-7.56-4.25-13.37-10.52-19-16.86-17.71-19.82-28-43.24-32-69.33a176.79,176.79,0,0,1,.32-54.14c12-9.51,25.75-15.52,40.13-20.32,1.46-.49,2.95-.92,4.42-1.38,14.91-4,30-6.22,45.49-4.69-28,7.26-48.71,23.74-60.7,50.1-10.89,23.92-10.51,48.67-2.87,73.53C118.36,250.05,127.08,264.05,137.64,277Z"/><path class="cls-32" d="M341.73,88.41c4.26,9.32,10.84,17.27,15.55,26.33.61,1.18,1.63,2.15,1.59,4.17-4.87-3.8-8.75-8.33-14.05-10.94-3.47-.59-2.75-4.68-5.14-6.18-4.49-2.52-6.56-7.26-9.74-10.94-10.15-11.77-19.87-23.92-32.42-33.31-2.07-1.55-2-4.33-4-5.83a231.32,231.32,0,0,0-51.65-27.65c-6.27-3.45-13.61-4.28-19.7-8.16.93.5,2.29.77,1.88,2.13s-1.86,1.42-3,1.34c-4.28-.28-8.44-1.39-12.71-1.86-22.64-2.5-44.82-.59-66.48,6.57-2.77.92-5.6,1.61-8.38,2.48-1.79.36-3.37,1.84-5.39,1.09-2.83-4.17-2.45-6.52,2.17-7.38,9.58-1.76,18.68-5.47,28.37-6.68a6.74,6.74,0,0,0,4.85-2.49h1c3.54.7,7.16,2.27,10.3-1h21.65a9.55,9.55,0,0,0,10.31,1c28.33,2.84,54.47,12.08,78.81,26.74a192.9,192.9,0,0,1,40.72,32.47,32.79,32.79,0,0,0,3.13,2.61C334.07,77.64,337.7,83.18,341.73,88.41Z"/><path class="cls-33" d="M87.14,50.24c-3.43-2.74-6.83.67-10.25,0C76,48.53,76.11,48.2,78,46.67a214.13,214.13,0,0,1,20.1-14.13c.37-.23,2.52-.34.88-1.76-.31-.27-1-.09-1.51-.11,2.17-1.94,4.79-.66,7.19-1,1.74-.25,3.71.62,5.18-1,4.92-2.39,9.94-3.55,15.24-1.28.77,3.32-2.29,3.35-4,4.17A261.19,261.19,0,0,0,92.34,48C90.61,48.73,89.5,50.94,87.14,50.24Z"/><path class="cls-32" d="M125.3,28.61c-3.22-1.88-6.5-1-9.84-.34a41.59,41.59,0,0,1-5.6.35c-.67-.07-1.78.07-1.94-.25-.87-1.77.93-1.81,1.79-2.18,11.4-5,23-9.34,35.2-12,6.13-1.35,12.18-3.11,18.54-3.06.13,3.06-1.17,4.42-4.35,4a15,15,0,0,0-8.86,1.55C144.5,19.41,138.11,19.75,132,21c-4.46.9-6,2.46-3.58,6.6C127.73,29,126.77,29.59,125.3,28.61Z"/><path class="cls-32" d="M206.74,11.1c-3.8,4.28-5.08,4.15-10.31-1C199.85,10.53,203.47,9,206.74,11.1Z"/><path class="cls-32" d="M174.78,10.07c-2,4.24-6,4.64-10.3,1C167.77,9.28,171.34,10.36,174.78,10.07Z"/><path class="cls-18" d="M573.61,17.27c1.18-2.94,5-3.21,6.19-6.18l2.05-1c9-1.16,17.95-2.86,27.07-3.54,5.08-.38,10.14-.21,15.2-.56,2.5,1.89.58,3-.9,3.65-2.17,1-4.08,2.45-6.21,3.51-11.57.61-23.11,1.31-34.51,3.58C579.61,17.26,576.69,19.05,573.61,17.27Z"/><path class="cls-34" d="M752.94,69.85l-15.51-5c-11.55-12.4-25.36-21.82-40-30.09-4.79-2.69-9.79-4.95-14.73-7.34-1.45-.71-3.45-1-3.28-3.37,3.16-3.58,8-1.84,11.68-3.61,1.1.59,1.52,2.22,3.12,2.05a143.12,143.12,0,0,1,37,24.29C739,53.88,746.7,61.21,752.94,69.85Z"/><path class="cls-17" d="M691.08,20.39c-1.87,3.23-5.5,1.74-8.13,3-1,.46-2.38,0-3.18,1.13-1.37.75-2.77.29-4.17.08-13.92-4.72-27.91-9.19-42.67-10.57-3.08-.29-6.14-.35-9.21-.45-2-.06-4.15.25-5.77-1.44.27-2.42,2.32-2.55,4-3.2,1.27-.49,3.31-.63,2.14-3l8.26,1c18.3,0,35.51,5,52.44,11.29C686.89,19,689,19.68,691.08,20.39Z"/><path class="cls-9" d="M376.41,192.68c-2.12,3-4.47,6.22-7.05,9.47s-5.32,6.44-7.9,9.27c-4.25-3-4.85-8.14-6.8-12.37-15.06-32.66-31.67-64.35-55-92.1-12.95-15.43-27-29.63-43.27-41.65-1.65-1.22-4.17-2.08-3.16-5a3.79,3.79,0,0,1,3-.11C276,66,295,73.66,312.7,84.28a4.91,4.91,0,0,1,2.24,3.09c9.86,13.32,19.81,26.58,28.27,40.89,8.24,14,16.71,31.24,32.05,62.1Z"/><path class="cls-35" d="M314.94,87.37l-2.06-2.06c-7.62-6.11-13.71-13.74-20.61-20.57A231.23,231.23,0,0,0,269.43,45c-1.38-1-4-1.7-2.5-4.5,2.72-.63,5.05.68,7.39,1.61,6.83,2.7,13.67,5.41,20,9.15.5.1,1.38.1,1.44.32,1.95,7,8.84,9.18,13.15,13.85Q319.2,76.56,329.1,88c3.78,4.38,7.78,8.64,10.58,13.79-1.53,1.79-2.3,0-3.29-.7C329.44,96.2,322.58,91.17,314.94,87.37Z"/><path class="cls-8" d="M253.07,60.59q8.24,6.85,16.45,13.71c13,10.91,24.41,23.39,35,36.6,15.19,18.85,27.61,39.47,38.49,61,6.55,13,12.3,26.33,18.42,39.52l-11,13.07-16.86-22.8c-.71-1.89-1.79-4.66-3.2-8-12.76-29.87-29.82-49.09-41.09-61.58a270.77,270.77,0,0,0-62.52-51.92c-19.12-11.53-39.43-20.55-61.23-25.89,0-.33,0-.65,0-1,2.89-2.29,6.42-2.29,9.77-2.46,24.22-1.24,48.25-.15,71.78,6.37C249.23,58.06,251.65,58.44,253.07,60.59Z"/><path class="cls-34" d="M676.74,57.52a7.27,7.27,0,0,1-4.25.95c0-1.58-1.1-1.77-2.35-2.11C656,52.52,641.72,49.76,627,49.08c-5.43-.25-10.84-.94-16.3-.89,14.94-7.25,30.63-12.49,46.4-17.53,2.13-1.81,4.5-1.24,6.83-.64C687.63,36.07,710.1,45,730.43,58.77c1.73,1.18,4.17,1.95,4,4.78-14.79-5.41-30.2-3.75-45.44-4.06-.07-.8.3-1.38,1.08-1.4,4.71-.11,9.43-.18,14.13-.07-5.11.09-10.22-.35-15.33.21A30.27,30.27,0,0,1,676.74,57.52Z"/><path class="cls-36" d="M618,12.12c20.49-.93,39.74,4.55,58.73,11.36,1.16,2-.38,2.95-1.78,3.41-5.77,1.87-11.45,4.55-17.81,2.77-15.49-2.29-31-4.41-46.72-4.19a219.28,219.28,0,0,0-27.46,2.13,200.31,200.31,0,0,0-26.81,5.14c-14,3-27.1,8.27-40,14.33a69.64,69.64,0,0,1-8.7,3.73c20-15.19,41.47-27.61,66.17-33.53C588.16,13.62,602.9,11.5,618,12.12Z"/><path class="cls-37" d="M657.09,29.66c6.52.48,12.12-3,18.25-4.24,1-.19,1.22-1.07,1.34-1.94l3.09,1c14.81,6.91,29.11,14.66,42.13,24.63a123.53,123.53,0,0,1,14.81,13.26c.6.63,1.95,1.18.72,2.41l-3-1.25c-9.37-7.89-20.19-13.36-31.18-18.46A223.2,223.2,0,0,0,664.2,31.45a30.5,30.5,0,0,0-7.08-.79Z"/><path class="cls-38" d="M591.08,316.29a52.24,52.24,0,0,1-21.53,0Z"/><path class="cls-39" d="M676.74,57.52h28.71c-5.39,1.91-11.12-.31-16.42,2l-9.26-.09Z"/><path class="cls-33" d="M248,58.52c-8.61-1.05-16.89-3.88-25.56-4.6-5.07-.42-10.13-1.47-15.19-1.51-10-.08-20-1.13-30-.09-3.88.4-7.78.7-11.67,1-8.68-.59-17-3.12-25.61-4.37-11-1.62-22.08-1.8-33.16-1.9.13-2.65,2.41-3.14,4.2-3.91,16.65-7.22,34.09-11.5,52-14,5.8-.8,11.57-1.39,17.4-.62a198.18,198.18,0,0,1,58.91,22.17C242.58,52.64,247.17,53.59,248,58.52Z"/><path class="cls-40" d="M181,29.66c-24.72-.11-48.09,6-70.77,15.34a23.37,23.37,0,0,0-3.46,2.11l-2,.07c-2.53.83-5.16,1.25-7.72,1.92-2,.54-4.74,1.41-5.7-1.93,10.84-7.09,21.86-13.86,34-18.56l3.11-1c1.42-.58,2.33-2.22,4.13-2.06,15.5-3.31,30.7,1.6,46.08,1.69a5.76,5.76,0,0,1,2.92.83C182.41,29,182.53,29.61,181,29.66Z"/><path class="cls-41" d="M91.3,47.17c4.47,2.78,9-1.3,13.42,0A256.22,256.22,0,0,0,66.31,69.35c6.39-7,12.49-14.28,20.83-19.11Z"/><path class="cls-42" d="M182,28.63c-12.31.43-24.39-2-36.59-3-2.87-.22-5.81-.56-8.65.36-1.5.49-3,1-4.22-.49,29.5-10.7,59.63-13.7,91.16-6.86-1.51-2.87-4.44-2-6.47-5.06,9.41,3.16,18,5.18,25.58,9.85-1,1.09-2.13.84-3.3.39,7.4,2.83,14,7.13,20.43,11.61,1,.69,4.85,1.8,1.16,4.28-8.08-.72-15.63-3.8-23.57-5.25-15.24-2.78-30.52-4.6-46-4.37C188.27,30.17,185,30.31,182,28.63Z"/><path class="cls-43" d="M262.38,38.93C254.59,32.25,245.27,28,236.12,23c2.62-1.36,4.53,1,6.69.43a181.82,181.82,0,0,1,51.54,27.83c-9.63-2.51-18.13-8-27.85-10.3C264.45,41.65,263.2,40.73,262.38,38.93Z"/><path class="cls-32" d="M262.38,38.93,266.5,41a273.19,273.19,0,0,1,36,32.41c3.6,3.85,6.94,7.93,10.4,11.91C301.35,79.84,290.36,73.23,278.25,69c-8.36-2.91-16.78-5.63-25.18-8.43-1.77-.52-3.7-.68-5.12-2.07-4.2-4.71-9.9-7.29-15.3-10-16.19-8.15-33-14.76-50.93-18.2-.28,0-.51-.43-.76-.65l1-1A257.37,257.37,0,0,1,243.6,34C249.93,35.24,256.12,37.25,262.38,38.93Z"/><path class="cls-44" d="M454.1,224.67c-9.83,12.59-19.79,26-29.75,40.24q-11.69,16.71-21.93,32.79l22,26.31c-.79-46.29,10.6-80.37,28.88-84.72,3.23-.76,7.36-.76,12.58,1.22q-3-4.24-6.22-8.63Q456.85,228.16,454.1,224.67Z"/><path class="cls-45" d="M454.1,224.67q-13.52,17.24-27.32,36.71Q413.66,280,402.42,297.7q5.43,6.41,10.87,12.82a147.54,147.54,0,0,1,2.77-16.9c5.45-24.16,15.26-38.7,17.21-41.52,1.23-1.78,2.33-3.18,4.52-6,10.35-13.2,14.14-14.84,17.14-15.2a12.13,12.13,0,0,1,4.18.27Z"/></g></g></svg>