<?xml version="1.0" encoding="utf-8"?>
<!-- Generator: Adobe Illustrator 25.0.0, SVG Export Plug-In . SVG Version: 6.00 Build 0)  -->
<svg version="1.1" id="Ebene_1" shape-rendering="auto"
	 xmlns="http://www.w3.org/2000/svg" xmlns:xlink="http://www.w3.org/1999/xlink" x="0px" y="0px" viewBox="0 0 100 100"
	 style="enable-background:new 0 0 100 100;" xml:space="preserve">
<path d="M38.1,13.2c0.4,0,0.7-0.3,0.7-0.7v0.7H38.1z"/>
<path d="M42,12.5v-1.8c0-0.4-0.3-0.7-0.7-0.7h-1.8c-0.4,0-0.7,0.3-0.7,0.7c0,0,0,0,0,0v2.5H42V12.5z"/>
<path d="M54.1,13.2c0.4,0,0.7-0.3,0.7-0.7v0.7H54.1z"/>
<path d="M58,12.5v-1.8c0-0.4-0.3-0.7-0.7-0.7h-1.8c-0.4,0-0.7,0.3-0.7,0.7c0,0,0,0,0,0v2.5H58V12.5z"/>
<path d="M61.9,10h1.8c0.4,0,0.7,0.3,0.7,0.7v1.8c0,0.4-0.3,0.7-0.7,0.7h-1.8c-0.4,0-0.7-0.3-0.7-0.7v-1.8C61.2,10.3,61.5,10,61.9,10
	z"/>
<path d="M38.1,13.2h-1.8c-0.4,0-0.7,0.3-0.7,0.7c0,0,0,0,0,0v1.8c0,0.4,0.3,0.7,0.7,0.7h2.5v-3.2H38.1z"/>
<rect x="38.8" y="13.2" width="3.2" height="3.2"/>
<path d="M44.5,16.4c0.4,0,0.7-0.3,0.7-0.7v0.7H44.5z"/>
<path d="M42.7,16.4c-0.4,0-0.7-0.3-0.7-0.7v0.7H42.7z"/>
<path d="M45.9,13.2c-0.4,0-0.7,0.3-0.7,0.7c0,0,0,0,0,0v2.5h3.2v-3.2H45.9z"/>
<rect x="48.4" y="13.2" width="3.2" height="3.2"/>
<rect x="51.6" y="13.2" width="3.2" height="3.2"/>
<path d="M58,15.7c0,0.4-0.3,0.7-0.7,0.7h-2.5v-3.2H58V15.7z"/>
<path d="M38.8,17.1v-0.7h-0.7C38.5,16.4,38.8,16.7,38.8,17.1z"/>
<path d="M38.1,19.6c0.4,0,0.7-0.3,0.7-0.7v0.7H38.1z"/>
<rect x="38.8" y="16.4" width="3.2" height="3.2"/>
<rect x="42" y="16.4" width="3.2" height="3.2"/>
<rect x="45.2" y="16.4" width="3.2" height="3.2"/>
<path d="M49.1,16.4h-0.7v0.7C48.4,16.7,48.7,16.4,49.1,16.4C49.1,16.4,49.1,16.4,49.1,16.4z"/>
<path d="M38.1,19.6h-1.8c-0.4,0-0.7,0.3-0.7,0.7c0,0,0,0,0,0v1.8c0,0.4,0.3,0.7,0.7,0.7h2.5v-3.2H38.1z"/>
<path d="M42,22.1c0,0.4-0.3,0.7-0.7,0.7h-2.5v-3.2H42V22.1z"/>
<path d="M42.7,19.6H42v0.7C42,19.9,42.3,19.6,42.7,19.6C42.7,19.6,42.7,19.6,42.7,19.6z"/>
<path d="M45.2,20.3v-0.7h-0.7C44.9,19.6,45.2,19.9,45.2,20.3z"/>
<path d="M45.2,22.1c0,0.4,0.3,0.7,0.7,0.7h1.8c0.4,0,0.7-0.3,0.7-0.7v-2.5h-3.2V22.1z"/>
<path d="M52.3,19.6h1.8c0.4,0,0.7,0.3,0.7,0.7v1.8c0,0.4-0.3,0.7-0.7,0.7h-1.8c-0.4,0-0.7-0.3-0.7-0.7v-1.8
	C51.6,19.9,51.9,19.6,52.3,19.6z"/>
<path d="M58.7,19.6c-0.4,0-0.7,0.3-0.7,0.7c0,0,0,0,0,0v2.5h3.2v-3.2H58.7z"/>
<path d="M63.7,19.6c0.4,0,0.7,0.3,0.7,0.7v2.5h-3.2v-3.2H63.7z"/>
<path d="M45.2,25.3v-1.8c0-0.4-0.3-0.7-0.7-0.7h-1.8c-0.4,0-0.7,0.3-0.7,0.7c0,0,0,0,0,0V26h3.2V25.3z"/>
<path d="M49.1,22.8h1.8c0.4,0,0.7,0.3,0.7,0.7v1.8c0,0.4-0.3,0.7-0.7,0.7h-1.8c-0.4,0-0.7-0.3-0.7-0.7v-1.8
	C48.4,23.1,48.7,22.8,49.1,22.8z"/>
<path d="M57.3,26c0.4,0,0.7-0.3,0.7-0.7V26H57.3z"/>
<rect x="58" y="22.8" width="3.2" height="3.2"/>
<path d="M64.4,25.3c0,0.4-0.3,0.7-0.7,0.7h-2.5v-3.2h3.2V25.3z"/>
<path d="M38.8,28.5v-1.8c0-0.4-0.3-0.7-0.7-0.7h-1.8c-0.4,0-0.7,0.3-0.7,0.7c0,0,0,0,0,0v2.5h3.2V28.5z"/>
<rect x="42" y="26" width="3.2" height="3.2"/>
<path d="M54.1,26h-1.8c-0.4,0-0.7,0.3-0.7,0.7c0,0,0,0,0,0v1.8c0,0.4,0.3,0.7,0.7,0.7h2.5V26H54.1z"/>
<rect x="54.8" y="26" width="3.2" height="3.2"/>
<path d="M61.2,28.5c0,0.4-0.3,0.7-0.7,0.7H58V26h3.2V28.5z"/>
<path d="M61.9,26h-0.7v0.7C61.2,26.3,61.5,26,61.9,26C61.9,26,61.9,26,61.9,26z"/>
<path d="M35.6,31.7c0,0.4,0.3,0.7,0.7,0.7h1.8c0.4,0,0.7-0.3,0.7-0.7v-2.5h-3.2V31.7z"/>
<path d="M42,31.7c0,0.4,0.3,0.7,0.7,0.7h1.8c0.4,0,0.7-0.3,0.7-0.7v-2.5H42V31.7z"/>
<path d="M51.6,31.7v-1.8c0-0.4-0.3-0.7-0.7-0.7h-1.8c-0.4,0-0.7,0.3-0.7,0.7c0,0,0,0,0,0v2.5h3.2V31.7z"/>
<path d="M54.8,29.9v-0.7h-0.7C54.5,29.2,54.8,29.5,54.8,29.9z"/>
<path d="M54.8,31.7c0,0.4,0.3,0.7,0.7,0.7h1.8c0.4,0,0.7-0.3,0.7-0.7v-2.5h-3.2V31.7z"/>
<path d="M58.7,29.2H58v0.7C58,29.5,58.3,29.2,58.7,29.2C58.7,29.2,58.7,29.2,58.7,29.2z"/>
<path d="M64.4,31.7v-1.8c0-0.4-0.3-0.7-0.7-0.7h-1.8c-0.4,0-0.7,0.3-0.7,0.7c0,0,0,0,0,0v2.5h3.2V31.7z"/>
<rect x="48.4" y="32.4" width="3.2" height="3.2"/>
<path d="M52.3,35.6c-0.4,0-0.7-0.3-0.7-0.7v0.7H52.3z"/>
<path d="M61.2,34.9c0,0.4,0.3,0.7,0.7,0.7h1.8c0.4,0,0.7-0.3,0.7-0.7v-2.5h-3.2V34.9z"/>
<path d="M12.5,35.6h-1.8c-0.4,0-0.7,0.3-0.7,0.7c0,0,0,0,0,0v1.8c0,0.4,0.3,0.7,0.7,0.7h2.5v-3.2H12.5z"/>
<rect x="13.2" y="35.6" width="3.2" height="3.2"/>
<rect x="16.4" y="35.6" width="3.2" height="3.2"/>
<rect x="19.6" y="35.6" width="3.2" height="3.2"/>
<path d="M25.3,35.6c0.4,0,0.7,0.3,0.7,0.7v2.5h-3.2v-3.2H25.3z"/>
<path d="M26.7,38.8c-0.4,0-0.7-0.3-0.7-0.7v0.7H26.7z"/>
<path d="M31.7,35.6h-1.8c-0.4,0-0.7,0.3-0.7,0.7c0,0,0,0,0,0v1.8c0,0.4,0.3,0.7,0.7,0.7h2.5v-3.2H31.7z"/>
<rect x="32.4" y="35.6" width="3.2" height="3.2"/>
<rect x="35.6" y="35.6" width="3.2" height="3.2"/>
<rect x="38.8" y="35.6" width="3.2" height="3.2"/>
<path d="M42.7,38.8h1.8c0.4,0,0.7-0.3,0.7-0.7v-1.8c0-0.4-0.3-0.7-0.7-0.7H42v3.2H42.7z"/>
<path d="M48.4,38.1c0,0.4,0.3,0.7,0.7,0.7h2.5v-3.2h-3.2V38.1z"/>
<rect x="51.6" y="35.6" width="3.2" height="3.2"/>
<rect x="54.8" y="35.6" width="3.2" height="3.2"/>
<path d="M60.5,35.6c0.4,0,0.7,0.3,0.7,0.7v2.5H58v-3.2H60.5z"/>
<path d="M63.7,38.8c0.4,0,0.7-0.3,0.7-0.7v0.7H63.7z"/>
<path d="M61.9,38.8c-0.4,0-0.7-0.3-0.7-0.7v0.7H61.9z"/>
<path d="M67.6,38.1v-1.8c0-0.4-0.3-0.7-0.7-0.7h-1.8c-0.4,0-0.7,0.3-0.7,0.7c0,0,0,0,0,0v2.5h3.2V38.1z"/>
<path d="M74,38.1v-1.8c0-0.4-0.3-0.7-0.7-0.7h-1.8c-0.4,0-0.7,0.3-0.7,0.7c0,0,0,0,0,0v2.5H74V38.1z"/>
<path d="M74.7,38.8c-0.4,0-0.7-0.3-0.7-0.7v0.7H74.7z"/>
<path d="M77.9,35.6h1.8c0.4,0,0.7,0.3,0.7,0.7v1.8c0,0.4-0.3,0.7-0.7,0.7h-1.8c-0.4,0-0.7-0.3-0.7-0.7v-1.8
	C77.2,35.9,77.5,35.6,77.9,35.6z"/>
<path d="M84.3,35.6h1.8c0.4,0,0.7,0.3,0.7,0.7v1.8c0,0.4-0.3,0.7-0.7,0.7h-1.8c-0.4,0-0.7-0.3-0.7-0.7v-1.8
	C83.6,35.9,83.9,35.6,84.3,35.6z"/>
<path d="M22.8,39.5v-0.7h-0.7C22.5,38.8,22.8,39.1,22.8,39.5z"/>
<path d="M22.8,41.3c0,0.4,0.3,0.7,0.7,0.7H26v-3.2h-3.2V41.3z"/>
<path d="M28.5,38.8c0.4,0,0.7,0.3,0.7,0.7V42H26v-3.2H28.5z"/>
<path d="M29.9,42c-0.4,0-0.7-0.3-0.7-0.7V42H29.9z"/>
<path d="M35.6,39.5v-0.7h-0.7C35.3,38.8,35.6,39.1,35.6,39.5z"/>
<path d="M35.6,41.3c0,0.4,0.3,0.7,0.7,0.7h2.5v-3.2h-3.2V41.3z"/>
<rect x="38.8" y="38.8" width="3.2" height="3.2"/>
<path d="M42.7,38.8H42v0.7C42,39.1,42.3,38.8,42.7,38.8C42.7,38.8,42.7,38.8,42.7,38.8z"/>
<path d="M58,39.5v-0.7h-0.7C57.7,38.8,58,39.1,58,39.5z"/>
<path d="M57.3,42c0.4,0,0.7-0.3,0.7-0.7V42H57.3z"/>
<rect x="58" y="38.8" width="3.2" height="3.2"/>
<rect x="61.2" y="38.8" width="3.2" height="3.2"/>
<rect x="64.4" y="38.8" width="3.2" height="3.2"/>
<path d="M68.3,42c-0.4,0-0.7-0.3-0.7-0.7V42H68.3z"/>
<path d="M70.8,41.3c0,0.4,0.3,0.7,0.7,0.7H74v-3.2h-3.2V41.3z"/>
<path d="M76.5,38.8c0.4,0,0.7,0.3,0.7,0.7V42H74v-3.2H76.5z"/>
<path d="M87.5,38.8h1.8c0.4,0,0.7,0.3,0.7,0.7v1.8c0,0.4-0.3,0.7-0.7,0.7h-1.8c-0.4,0-0.7-0.3-0.7-0.7v-1.8
	C86.8,39.1,87.1,38.8,87.5,38.8z"/>
<path d="M12.5,42h-1.8c-0.4,0-0.7,0.3-0.7,0.7c0,0,0,0,0,0v1.8c0,0.4,0.3,0.7,0.7,0.7h2.5V42H12.5z"/>
<rect x="13.2" y="42" width="3.2" height="3.2"/>
<rect x="16.4" y="42" width="3.2" height="3.2"/>
<path d="M20.3,45.2h1.8c0.4,0,0.7-0.3,0.7-0.7v-1.8c0-0.4-0.3-0.7-0.7-0.7h-2.5v3.2H20.3z"/>
<path d="M26,42.7V42h-0.7C25.7,42,26,42.3,26,42.7z"/>
<path d="M26,44.5c0,0.4,0.3,0.7,0.7,0.7h2.5V42H26V44.5z"/>
<rect x="29.2" y="42" width="3.2" height="3.2"/>
<path d="M34.9,42c0.4,0,0.7,0.3,0.7,0.7v2.5h-3.2V42H34.9z"/>
<path d="M38.8,42.7V42h-0.7C38.5,42,38.8,42.3,38.8,42.7z"/>
<rect x="38.8" y="42" width="3.2" height="3.2"/>
<path d="M44.5,45.2c0.4,0,0.7-0.3,0.7-0.7v0.7H44.5z"/>
<path d="M42.7,45.2c-0.4,0-0.7-0.3-0.7-0.7v0.7H42.7z"/>
<path d="M45.9,42c-0.4,0-0.7,0.3-0.7,0.7c0,0,0,0,0,0v2.5h3.2V42H45.9z"/>
<rect x="48.4" y="42" width="3.2" height="3.2"/>
<rect x="51.6" y="42" width="3.2" height="3.2"/>
<rect x="54.8" y="42" width="3.2" height="3.2"/>
<path d="M61.2,44.5c0,0.4-0.3,0.7-0.7,0.7H58V42h3.2V44.5z"/>
<path d="M61.9,42h-0.7v0.7C61.2,42.3,61.5,42,61.9,42C61.9,42,61.9,42,61.9,42z"/>
<path d="M64.4,42.7V42h-0.7C64.1,42,64.4,42.3,64.4,42.7z"/>
<path d="M63.7,45.2c0.4,0,0.7-0.3,0.7-0.7v0.7H63.7z"/>
<rect x="64.4" y="42" width="3.2" height="3.2"/>
<path d="M68.3,45.2h1.8c0.4,0,0.7-0.3,0.7-0.7v-1.8c0-0.4-0.3-0.7-0.7-0.7h-2.5v3.2H68.3z"/>
<path d="M74,42.7V42h-0.7C73.7,42,74,42.3,74,42.7z"/>
<path d="M74,44.5c0,0.4,0.3,0.7,0.7,0.7h1.8c0.4,0,0.7-0.3,0.7-0.7V42H74V44.5z"/>
<path d="M81.1,42h1.8c0.4,0,0.7,0.3,0.7,0.7v1.8c0,0.4-0.3,0.7-0.7,0.7h-1.8c-0.4,0-0.7-0.3-0.7-0.7v-1.8C80.4,42.3,80.7,42,81.1,42
	z"/>
<path d="M13.2,45.9v-0.7h-0.7C12.9,45.2,13.2,45.5,13.2,45.9z"/>
<path d="M12.5,48.4c0.4,0,0.7-0.3,0.7-0.7v0.7H12.5z"/>
<rect x="13.2" y="45.2" width="3.2" height="3.2"/>
<path d="M17.1,45.2h-0.7v0.7C16.4,45.5,16.7,45.2,17.1,45.2C17.1,45.2,17.1,45.2,17.1,45.2z"/>
<path d="M23.5,45.2h1.8c0.4,0,0.7,0.3,0.7,0.7v1.8c0,0.4-0.3,0.7-0.7,0.7h-1.8c-0.4,0-0.7-0.3-0.7-0.7v-1.8
	C22.8,45.5,23.1,45.2,23.5,45.2z"/>
<path d="M32.4,45.9v-0.7h-0.7C32.1,45.2,32.4,45.5,32.4,45.9z"/>
<path d="M31.7,48.4c0.4,0,0.7-0.3,0.7-0.7v0.7H31.7z"/>
<rect x="32.4" y="45.2" width="3.2" height="3.2"/>
<rect x="38.8" y="45.2" width="3.2" height="3.2"/>
<rect x="42" y="45.2" width="3.2" height="3.2"/>
<rect x="45.2" y="45.2" width="3.2" height="3.2"/>
<path d="M49.1,45.2h-0.7v0.7C48.4,45.5,48.7,45.2,49.1,45.2C49.1,45.2,49.1,45.2,49.1,45.2z"/>
<path d="M54.8,45.9v-0.7h-0.7C54.5,45.2,54.8,45.5,54.8,45.9z"/>
<path d="M54.8,47.7c0,0.4,0.3,0.7,0.7,0.7h1.8c0.4,0,0.7-0.3,0.7-0.7v-2.5h-3.2V47.7z"/>
<path d="M58.7,45.2H58v0.7C58,45.5,58.3,45.2,58.7,45.2C58.7,45.2,58.7,45.2,58.7,45.2z"/>
<path d="M63.7,45.2h-1.8c-0.4,0-0.7,0.3-0.7,0.7c0,0,0,0,0,0v1.8c0,0.4,0.3,0.7,0.7,0.7h2.5v-3.2H63.7z"/>
<path d="M67.6,47.7c0,0.4-0.3,0.7-0.7,0.7h-2.5v-3.2h3.2V47.7z"/>
<path d="M68.3,45.2h-0.7v0.7C67.6,45.5,67.9,45.2,68.3,45.2C68.3,45.2,68.3,45.2,68.3,45.2z"/>
<path d="M10.7,48.4c-0.4,0-0.7,0.3-0.7,0.7c0,0,0,0,0,0v2.5h3.2v-3.2H10.7z"/>
<rect x="13.2" y="48.4" width="3.2" height="3.2"/>
<path d="M17.1,51.6c-0.4,0-0.7-0.3-0.7-0.7v0.7H17.1z"/>
<path d="M28.5,48.4h-1.8c-0.4,0-0.7,0.3-0.7,0.7c0,0,0,0,0,0v1.8c0,0.4,0.3,0.7,0.7,0.7h2.5v-3.2H28.5z"/>
<rect x="29.2" y="48.4" width="3.2" height="3.2"/>
<rect x="32.4" y="48.4" width="3.2" height="3.2"/>
<path d="M36.3,51.6c-0.4,0-0.7-0.3-0.7-0.7v0.7H36.3z"/>
<path d="M38.8,50.9c0,0.4,0.3,0.7,0.7,0.7h1.8c0.4,0,0.7-0.3,0.7-0.7v-2.5h-3.2V50.9z"/>
<path d="M42.7,48.4H42v0.7C42,48.7,42.3,48.4,42.7,48.4C42.7,48.4,42.7,48.4,42.7,48.4z"/>
<path d="M45.2,49.1v-0.7h-0.7C44.9,48.4,45.2,48.7,45.2,49.1z"/>
<path d="M45.2,50.9c0,0.4,0.3,0.7,0.7,0.7h1.8c0.4,0,0.7-0.3,0.7-0.7v-2.5h-3.2V50.9z"/>
<path d="M58.7,48.4h1.8c0.4,0,0.7,0.3,0.7,0.7v1.8c0,0.4-0.3,0.7-0.7,0.7h-1.8c-0.4,0-0.7-0.3-0.7-0.7v-1.8
	C58,48.7,58.3,48.4,58.7,48.4z"/>
<path d="M66.9,51.6c0.4,0,0.7-0.3,0.7-0.7v0.7H66.9z"/>
<path d="M68.3,48.4c-0.4,0-0.7,0.3-0.7,0.7c0,0,0,0,0,0v2.5h3.2v-3.2H68.3z"/>
<rect x="70.8" y="48.4" width="3.2" height="3.2"/>
<rect x="74" y="48.4" width="3.2" height="3.2"/>
<path d="M77.9,51.6h1.8c0.4,0,0.7-0.3,0.7-0.7v-1.8c0-0.4-0.3-0.7-0.7-0.7h-2.5v3.2H77.9z"/>
<path d="M86.1,48.4h-1.8c-0.4,0-0.7,0.3-0.7,0.7c0,0,0,0,0,0v1.8c0,0.4,0.3,0.7,0.7,0.7h2.5v-3.2H86.1z"/>
<path d="M87.5,51.6h1.8c0.4,0,0.7-0.3,0.7-0.7v-1.8c0-0.4-0.3-0.7-0.7-0.7h-2.5v3.2H87.5z"/>
<rect x="10" y="51.6" width="3.2" height="3.2"/>
<rect x="13.2" y="51.6" width="3.2" height="3.2"/>
<path d="M17.1,54.8h1.8c0.4,0,0.7-0.3,0.7-0.7v-1.8c0-0.4-0.3-0.7-0.7-0.7h-2.5v3.2H17.1z"/>
<path d="M22.1,54.8c0.4,0,0.7-0.3,0.7-0.7v0.7H22.1z"/>
<path d="M26,54.1v-1.8c0-0.4-0.3-0.7-0.7-0.7h-1.8c-0.4,0-0.7,0.3-0.7,0.7c0,0,0,0,0,0v2.5H26V54.1z"/>
<path d="M32.4,52.3v-0.7h-0.7C32.1,51.6,32.4,51.9,32.4,52.3z"/>
<path d="M31.7,54.8c0.4,0,0.7-0.3,0.7-0.7v0.7H31.7z"/>
<rect x="32.4" y="51.6" width="3.2" height="3.2"/>
<path d="M36.3,54.8h1.8c0.4,0,0.7-0.3,0.7-0.7v-1.8c0-0.4-0.3-0.7-0.7-0.7h-2.5v3.2H36.3z"/>
<path d="M41.3,54.8c0.4,0,0.7-0.3,0.7-0.7v0.7H41.3z"/>
<path d="M45.2,54.1v-1.8c0-0.4-0.3-0.7-0.7-0.7h-1.8c-0.4,0-0.7,0.3-0.7,0.7c0,0,0,0,0,0v2.5h3.2V54.1z"/>
<path d="M49.1,51.6h1.8c0.4,0,0.7,0.3,0.7,0.7v1.8c0,0.4-0.3,0.7-0.7,0.7h-1.8c-0.4,0-0.7-0.3-0.7-0.7v-1.8
	C48.4,51.9,48.7,51.6,49.1,51.6z"/>
<path d="M54.1,54.8c0.4,0,0.7-0.3,0.7-0.7v0.7H54.1z"/>
<path d="M58,54.1v-1.8c0-0.4-0.3-0.7-0.7-0.7h-1.8c-0.4,0-0.7,0.3-0.7,0.7c0,0,0,0,0,0v2.5H58V54.1z"/>
<path d="M63.7,51.6h-1.8c-0.4,0-0.7,0.3-0.7,0.7c0,0,0,0,0,0v1.8c0,0.4,0.3,0.7,0.7,0.7h2.5v-3.2H63.7z"/>
<rect x="64.4" y="51.6" width="3.2" height="3.2"/>
<rect x="67.6" y="51.6" width="3.2" height="3.2"/>
<rect x="70.8" y="51.6" width="3.2" height="3.2"/>
<rect x="74" y="51.6" width="3.2" height="3.2"/>
<path d="M77.9,51.6h-0.7v0.7C77.2,51.9,77.5,51.6,77.9,51.6C77.9,51.6,77.9,51.6,77.9,51.6z"/>
<rect x="10" y="54.8" width="3.2" height="3.2"/>
<path d="M13.9,54.8h-0.7v0.7C13.2,55.1,13.5,54.8,13.9,54.8C13.9,54.8,13.9,54.8,13.9,54.8z"/>
<path d="M20.3,54.8c-0.4,0-0.7,0.3-0.7,0.7c0,0,0,0,0,0V58h3.2v-3.2H20.3z"/>
<path d="M26,57.3c0,0.4-0.3,0.7-0.7,0.7h-2.5v-3.2H26V57.3z"/>
<path d="M31.7,54.8h-1.8c-0.4,0-0.7,0.3-0.7,0.7c0,0,0,0,0,0v1.8c0,0.4,0.3,0.7,0.7,0.7h2.5v-3.2H31.7z"/>
<path d="M35.6,57.3c0,0.4-0.3,0.7-0.7,0.7h-2.5v-3.2h3.2V57.3z"/>
<path d="M36.3,54.8h-0.7v0.7C35.6,55.1,35.9,54.8,36.3,54.8C36.3,54.8,36.3,54.8,36.3,54.8z"/>
<path d="M39.5,54.8c-0.4,0-0.7,0.3-0.7,0.7c0,0,0,0,0,0V58H42v-3.2H39.5z"/>
<rect x="42" y="54.8" width="3.2" height="3.2"/>
<path d="M50.9,58c0.4,0,0.7-0.3,0.7-0.7V58H50.9z"/>
<path d="M52.3,54.8c-0.4,0-0.7,0.3-0.7,0.7c0,0,0,0,0,0V58h3.2v-3.2H52.3z"/>
<path d="M58,57.3c0,0.4-0.3,0.7-0.7,0.7h-2.5v-3.2H58V57.3z"/>
<path d="M64.4,55.5v-0.7h-0.7C64.1,54.8,64.4,55.1,64.4,55.5z"/>
<rect x="64.4" y="54.8" width="3.2" height="3.2"/>
<path d="M70.8,57.3c0,0.4-0.3,0.7-0.7,0.7h-2.5v-3.2h3.2V57.3z"/>
<path d="M71.5,54.8h-0.7v0.7C70.8,55.1,71.1,54.8,71.5,54.8C71.5,54.8,71.5,54.8,71.5,54.8z"/>
<path d="M74,55.5v-0.7h-0.7C73.7,54.8,74,55.1,74,55.5z"/>
<path d="M74,57.3c0,0.4,0.3,0.7,0.7,0.7h1.8c0.4,0,0.7-0.3,0.7-0.7v-2.5H74V57.3z"/>
<path d="M82.9,54.8h-1.8c-0.4,0-0.7,0.3-0.7,0.7c0,0,0,0,0,0v1.8c0,0.4,0.3,0.7,0.7,0.7h2.5v-3.2H82.9z"/>
<rect x="83.6" y="54.8" width="3.2" height="3.2"/>
<path d="M89.3,54.8c0.4,0,0.7,0.3,0.7,0.7V58h-3.2v-3.2H89.3z"/>
<rect x="10" y="58" width="3.2" height="3.2"/>
<path d="M19.6,60.5c0,0.4,0.3,0.7,0.7,0.7h1.8c0.4,0,0.7-0.3,0.7-0.7V58h-3.2V60.5z"/>
<path d="M23.5,58h-0.7v0.7C22.8,58.3,23.1,58,23.5,58C23.5,58,23.5,58,23.5,58z"/>
<path d="M38.8,60.5c0,0.4,0.3,0.7,0.7,0.7H42V58h-3.2V60.5z"/>
<rect x="42" y="58" width="3.2" height="3.2"/>
<path d="M49.1,58c-0.4,0-0.7,0.3-0.7,0.7c0,0,0,0,0,0v2.5h3.2V58H49.1z"/>
<rect x="51.6" y="58" width="3.2" height="3.2"/>
<path d="M55.5,58h-0.7v0.7C54.8,58.3,55.1,58,55.5,58C55.5,58,55.5,58,55.5,58z"/>
<path d="M55.5,61.2c-0.4,0-0.7-0.3-0.7-0.7v0.7H55.5z"/>
<path d="M63.7,61.2c0.4,0,0.7-0.3,0.7-0.7v0.7H63.7z"/>
<rect x="64.4" y="58" width="3.2" height="3.2"/>
<path d="M68.3,58h-0.7v0.7C67.6,58.3,67.9,58,68.3,58C68.3,58,68.3,58,68.3,58z"/>
<path d="M68.3,61.2c-0.4,0-0.7-0.3-0.7-0.7v0.7H68.3z"/>
<path d="M83.6,58.7V58h-0.7C83.3,58,83.6,58.3,83.6,58.7z"/>
<path d="M83.6,60.5c0,0.4,0.3,0.7,0.7,0.7h2.5V58h-3.2V60.5z"/>
<rect x="86.8" y="58" width="3.2" height="3.2"/>
<path d="M10,63.7c0,0.4,0.3,0.7,0.7,0.7h1.8c0.4,0,0.7-0.3,0.7-0.7v-2.5H10V63.7z"/>
<path d="M25.3,61.2h-1.8c-0.4,0-0.7,0.3-0.7,0.7c0,0,0,0,0,0v1.8c0,0.4,0.3,0.7,0.7,0.7H26v-3.2H25.3z"/>
<rect x="26" y="61.2" width="3.2" height="3.2"/>
<rect x="29.2" y="61.2" width="3.2" height="3.2"/>
<rect x="32.4" y="61.2" width="3.2" height="3.2"/>
<path d="M38.1,61.2c0.4,0,0.7,0.3,0.7,0.7v2.5h-3.2v-3.2H38.1z"/>
<path d="M42,61.9v-0.7h-0.7C41.7,61.2,42,61.5,42,61.9z"/>
<path d="M39.5,64.4c-0.4,0-0.7-0.3-0.7-0.7v0.7H39.5z"/>
<path d="M42,63.7c0,0.4,0.3,0.7,0.7,0.7h1.8c0.4,0,0.7-0.3,0.7-0.7v-2.5H42V63.7z"/>
<path d="M48.4,63.7c0,0.4,0.3,0.7,0.7,0.7h2.5v-3.2h-3.2V63.7z"/>
<rect x="51.6" y="61.2" width="3.2" height="3.2"/>
<rect x="54.8" y="61.2" width="3.2" height="3.2"/>
<rect x="58" y="61.2" width="3.2" height="3.2"/>
<rect x="61.2" y="61.2" width="3.2" height="3.2"/>
<rect x="64.4" y="61.2" width="3.2" height="3.2"/>
<rect x="67.6" y="61.2" width="3.2" height="3.2"/>
<rect x="70.8" y="61.2" width="3.2" height="3.2"/>
<rect x="74" y="61.2" width="3.2" height="3.2"/>
<path d="M77.9,64.4h1.8c0.4,0,0.7-0.3,0.7-0.7v-1.8c0-0.4-0.3-0.7-0.7-0.7h-2.5v3.2H77.9z"/>
<path d="M86.8,61.9v-0.7h-0.7C86.5,61.2,86.8,61.5,86.8,61.9z"/>
<rect x="86.8" y="61.2" width="3.2" height="3.2"/>
<path d="M35.6,65.1v-0.7h-0.7C35.3,64.4,35.6,64.7,35.6,65.1z"/>
<rect x="35.6" y="64.4" width="3.2" height="3.2"/>
<path d="M41.3,64.4c0.4,0,0.7,0.3,0.7,0.7v2.5h-3.2v-3.2H41.3z"/>
<path d="M42.7,67.6c-0.4,0-0.7-0.3-0.7-0.7v0.7H42.7z"/>
<path d="M54.8,65.1v-0.7h-0.7C54.5,64.4,54.8,64.7,54.8,65.1z"/>
<rect x="54.8" y="64.4" width="3.2" height="3.2"/>
<path d="M58.7,64.4H58v0.7C58,64.7,58.3,64.4,58.7,64.4C58.7,64.4,58.7,64.4,58.7,64.4z"/>
<path d="M61.2,65.1v-0.7h-0.7C60.9,64.4,61.2,64.7,61.2,65.1z"/>
<rect x="61.2" y="64.4" width="3.2" height="3.2"/>
<path d="M65.1,64.4h-0.7v0.7C64.4,64.7,64.7,64.4,65.1,64.4C65.1,64.4,65.1,64.4,65.1,64.4z"/>
<path d="M74,65.1v-0.7h-0.7C73.7,64.4,74,64.7,74,65.1z"/>
<rect x="74" y="64.4" width="3.2" height="3.2"/>
<path d="M77.9,64.4h-0.7v0.7C77.2,64.7,77.5,64.4,77.9,64.4C77.9,64.4,77.9,64.4,77.9,64.4z"/>
<path d="M86.1,67.6c0.4,0,0.7-0.3,0.7-0.7v0.7H86.1z"/>
<rect x="86.8" y="64.4" width="3.2" height="3.2"/>
<path d="M35.6,70.1c0,0.4,0.3,0.7,0.7,0.7h2.5v-3.2h-3.2V70.1z"/>
<rect x="38.8" y="67.6" width="3.2" height="3.2"/>
<rect x="42" y="67.6" width="3.2" height="3.2"/>
<rect x="45.2" y="67.6" width="3.2" height="3.2"/>
<path d="M49.1,70.8h1.8c0.4,0,0.7-0.3,0.7-0.7v-1.8c0-0.4-0.3-0.7-0.7-0.7h-2.5v3.2H49.1z"/>
<path d="M54.8,70.1c0,0.4,0.3,0.7,0.7,0.7h1.8c0.4,0,0.7-0.3,0.7-0.7v-2.5h-3.2V70.1z"/>
<rect x="61.2" y="67.6" width="3.2" height="3.2"/>
<path d="M68.3,67.6h1.8c0.4,0,0.7,0.3,0.7,0.7v1.8c0,0.4-0.3,0.7-0.7,0.7h-1.8c-0.4,0-0.7-0.3-0.7-0.7v-1.8
	C67.6,67.9,67.9,67.6,68.3,67.6z"/>
<rect x="74" y="67.6" width="3.2" height="3.2"/>
<path d="M77.9,70.8c-0.4,0-0.7-0.3-0.7-0.7v0.7H77.9z"/>
<path d="M82.9,67.6h-1.8c-0.4,0-0.7,0.3-0.7,0.7c0,0,0,0,0,0v1.8c0,0.4,0.3,0.7,0.7,0.7h2.5v-3.2H82.9z"/>
<rect x="83.6" y="67.6" width="3.2" height="3.2"/>
<path d="M90,70.1c0,0.4-0.3,0.7-0.7,0.7h-2.5v-3.2H90V70.1z"/>
<path d="M45.2,71.5v-0.7h-0.7C44.9,70.8,45.2,71.1,45.2,71.5z"/>
<path d="M44.5,74c0.4,0,0.7-0.3,0.7-0.7V74H44.5z"/>
<rect x="45.2" y="70.8" width="3.2" height="3.2"/>
<path d="M49.1,70.8h-0.7v0.7C48.4,71.1,48.7,70.8,49.1,70.8C49.1,70.8,49.1,70.8,49.1,70.8z"/>
<path d="M49.1,74c-0.4,0-0.7-0.3-0.7-0.7V74H49.1z"/>
<rect x="61.2" y="70.8" width="3.2" height="3.2"/>
<path d="M65.1,74c-0.4,0-0.7-0.3-0.7-0.7V74H65.1z"/>
<path d="M73.3,74c0.4,0,0.7-0.3,0.7-0.7V74H73.3z"/>
<rect x="74" y="70.8" width="3.2" height="3.2"/>
<path d="M79.7,70.8c0.4,0,0.7,0.3,0.7,0.7V74h-3.2v-3.2H79.7z"/>
<path d="M36.3,74c-0.4,0-0.7,0.3-0.7,0.7c0,0,0,0,0,0v2.5h3.2V74H36.3z"/>
<rect x="38.8" y="74" width="3.2" height="3.2"/>
<rect x="42" y="74" width="3.2" height="3.2"/>
<rect x="45.2" y="74" width="3.2" height="3.2"/>
<rect x="48.4" y="74" width="3.2" height="3.2"/>
<rect x="51.6" y="74" width="3.2" height="3.2"/>
<path d="M57.3,74c0.4,0,0.7,0.3,0.7,0.7v2.5h-3.2V74H57.3z"/>
<path d="M60.5,77.2c0.4,0,0.7-0.3,0.7-0.7v0.7H60.5z"/>
<path d="M58.7,77.2c-0.4,0-0.7-0.3-0.7-0.7v0.7H58.7z"/>
<rect x="61.2" y="74" width="3.2" height="3.2"/>
<rect x="64.4" y="74" width="3.2" height="3.2"/>
<rect x="67.6" y="74" width="3.2" height="3.2"/>
<rect x="70.8" y="74" width="3.2" height="3.2"/>
<rect x="74" y="74" width="3.2" height="3.2"/>
<path d="M80.4,76.5c0,0.4-0.3,0.7-0.7,0.7h-2.5V74h3.2V76.5z"/>
<rect x="35.6" y="77.2" width="3.2" height="3.2"/>
<path d="M39.5,77.2h-0.7v0.7C38.8,77.5,39.1,77.2,39.5,77.2C39.5,77.2,39.5,77.2,39.5,77.2z"/>
<path d="M39.5,80.4c-0.4,0-0.7-0.3-0.7-0.7v0.7H39.5z"/>
<path d="M48.4,77.9v-0.7h-0.7C48.1,77.2,48.4,77.5,48.4,77.9z"/>
<rect x="48.4" y="77.2" width="3.2" height="3.2"/>
<path d="M52.3,77.2h-0.7v0.7C51.6,77.5,51.9,77.2,52.3,77.2C52.3,77.2,52.3,77.2,52.3,77.2z"/>
<path d="M54.8,77.9v-0.7h-0.7C54.5,77.2,54.8,77.5,54.8,77.9z"/>
<rect x="54.8" y="77.2" width="3.2" height="3.2"/>
<rect x="58" y="77.2" width="3.2" height="3.2"/>
<path d="M64.4,79.7c0,0.4-0.3,0.7-0.7,0.7h-2.5v-3.2h3.2V79.7z"/>
<path d="M65.1,77.2h-0.7v0.7C64.4,77.5,64.7,77.2,65.1,77.2C65.1,77.2,65.1,77.2,65.1,77.2z"/>
<path d="M67.6,77.9v-0.7h-0.7C67.3,77.2,67.6,77.5,67.6,77.9z"/>
<path d="M67.6,79.7c0,0.4,0.3,0.7,0.7,0.7h1.8c0.4,0,0.7-0.3,0.7-0.7v-2.5h-3.2V79.7z"/>
<path d="M71.5,77.2h-0.7v0.7C70.8,77.5,71.1,77.2,71.5,77.2C71.5,77.2,71.5,77.2,71.5,77.2z"/>
<path d="M74,77.9v-0.7h-0.7C73.7,77.2,74,77.5,74,77.9z"/>
<rect x="74" y="77.2" width="3.2" height="3.2"/>
<path d="M77.9,77.2h-0.7v0.7C77.2,77.5,77.5,77.2,77.9,77.2C77.9,77.2,77.9,77.2,77.9,77.2z"/>
<path d="M86.1,77.2h-1.8c-0.4,0-0.7,0.3-0.7,0.7c0,0,0,0,0,0v1.8c0,0.4,0.3,0.7,0.7,0.7h2.5v-3.2H86.1z"/>
<path d="M89.3,77.2c0.4,0,0.7,0.3,0.7,0.7v2.5h-3.2v-3.2H89.3z"/>
<rect x="35.6" y="80.4" width="3.2" height="3.2"/>
<rect x="38.8" y="80.4" width="3.2" height="3.2"/>
<path d="M42.7,83.6h1.8c0.4,0,0.7-0.3,0.7-0.7v-1.8c0-0.4-0.3-0.7-0.7-0.7H42v3.2H42.7z"/>
<rect x="48.4" y="80.4" width="3.2" height="3.2"/>
<path d="M52.3,83.6c-0.4,0-0.7-0.3-0.7-0.7v0.7H52.3z"/>
<path d="M54.8,82.9c0,0.4,0.3,0.7,0.7,0.7h1.8c0.4,0,0.7-0.3,0.7-0.7v-2.5h-3.2V82.9z"/>
<path d="M58.7,80.4H58v0.7C58,80.7,58.3,80.4,58.7,80.4C58.7,80.4,58.7,80.4,58.7,80.4z"/>
<path d="M73.3,83.6c0.4,0,0.7-0.3,0.7-0.7v0.7H73.3z"/>
<rect x="74" y="80.4" width="3.2" height="3.2"/>
<path d="M77.9,83.6c-0.4,0-0.7-0.3-0.7-0.7v0.7H77.9z"/>
<path d="M81.1,80.4h1.8c0.4,0,0.7,0.3,0.7,0.7v1.8c0,0.4-0.3,0.7-0.7,0.7h-1.8c-0.4,0-0.7-0.3-0.7-0.7v-1.8
	C80.4,80.7,80.7,80.4,81.1,80.4z"/>
<path d="M86.8,81.1v-0.7h-0.7C86.5,80.4,86.8,80.7,86.8,81.1z"/>
<path d="M86.8,82.9c0,0.4,0.3,0.7,0.7,0.7h1.8c0.4,0,0.7-0.3,0.7-0.7v-2.5h-3.2V82.9z"/>
<rect x="35.6" y="83.6" width="3.2" height="3.2"/>
<path d="M39.5,83.6h-0.7v0.7C38.8,83.9,39.1,83.6,39.5,83.6C39.5,83.6,39.5,83.6,39.5,83.6z"/>
<path d="M39.5,86.8c-0.4,0-0.7-0.3-0.7-0.7v0.7H39.5z"/>
<path d="M48.4,86.1c0,0.4,0.3,0.7,0.7,0.7h2.5v-3.2h-3.2V86.1z"/>
<path d="M52.3,86.8h1.8c0.4,0,0.7-0.3,0.7-0.7v-1.8c0-0.4-0.3-0.7-0.7-0.7h-2.5v3.2H52.3z"/>
<path d="M63.7,83.6h-1.8c-0.4,0-0.7,0.3-0.7,0.7c0,0,0,0,0,0v1.8c0,0.4,0.3,0.7,0.7,0.7h2.5v-3.2H63.7z"/>
<rect x="64.4" y="83.6" width="3.2" height="3.2"/>
<rect x="67.6" y="83.6" width="3.2" height="3.2"/>
<rect x="70.8" y="83.6" width="3.2" height="3.2"/>
<rect x="74" y="83.6" width="3.2" height="3.2"/>
<path d="M77.9,86.8h1.8c0.4,0,0.7-0.3,0.7-0.7v-1.8c0-0.4-0.3-0.7-0.7-0.7h-2.5v3.2H77.9z"/>
<path d="M82.9,86.8c0.4,0,0.7-0.3,0.7-0.7v0.7H82.9z"/>
<path d="M86.8,86.1v-1.8c0-0.4-0.3-0.7-0.7-0.7h-1.8c-0.4,0-0.7,0.3-0.7,0.7c0,0,0,0,0,0v2.5h3.2V86.1z"/>
<path d="M87.5,86.8c-0.4,0-0.7-0.3-0.7-0.7v0.7H87.5z"/>
<path d="M35.6,89.3c0,0.4,0.3,0.7,0.7,0.7h2.5v-3.2h-3.2V89.3z"/>
<rect x="38.8" y="86.8" width="3.2" height="3.2"/>
<path d="M42.7,90h1.8c0.4,0,0.7-0.3,0.7-0.7v-1.8c0-0.4-0.3-0.7-0.7-0.7H42V90H42.7z"/>
<path d="M58.7,86.8h1.8c0.4,0,0.7,0.3,0.7,0.7v1.8c0,0.4-0.3,0.7-0.7,0.7h-1.8c-0.4,0-0.7-0.3-0.7-0.7v-1.8
	C58,87.1,58.3,86.8,58.7,86.8z"/>
<path d="M82.9,86.8h-1.8c-0.4,0-0.7,0.3-0.7,0.7c0,0,0,0,0,0v1.8c0,0.4,0.3,0.7,0.7,0.7h2.5v-3.2H82.9z"/>
<rect x="83.6" y="86.8" width="3.2" height="3.2"/>
<path d="M87.5,90h1.8c0.4,0,0.7-0.3,0.7-0.7v-1.8c0-0.4-0.3-0.7-0.7-0.7h-2.5V90H87.5z"/>
<path d="M10.7,10c-0.4,0-0.7,0.3-0.7,0.7v2.5v3.2v3.2v3.2V26v3.2v2.5c0,0.4,0.3,0.7,0.7,0.7h21c0.4,0,0.7-0.3,0.7-0.7v-2.5V26v-3.2
	v-3.2v-3.2v-3.2v-2.5c0-0.4-0.3-0.7-0.7-0.7C31.7,10,10.7,10,10.7,10z M29.2,16.4v3.2v3.2V26v2.8c0,0.2-0.2,0.4-0.4,0.4H13.6
	c-0.2,0-0.4-0.2-0.4-0.4V26v-3.2v-3.2v-3.2v-2.8c0-0.2,0.2-0.4,0.4-0.4h15.2c0.2,0,0.4,0.2,0.4,0.4V16.4z"/>
<path d="M26,22.8v-3.2v-2.5c0-0.4-0.3-0.7-0.7-0.7h-8.2c-0.4,0-0.7,0.3-0.7,0.7v2.5v3.2v2.5c0,0.4,0.3,0.7,0.7,0.7h8.2
	c0.4,0,0.7-0.3,0.7-0.7V22.8z"/>
<path d="M68.3,10c-0.4,0-0.7,0.3-0.7,0.7v2.5v3.2v3.2v3.2V26v3.2v2.5c0,0.4,0.3,0.7,0.7,0.7h21c0.4,0,0.7-0.3,0.7-0.7v-2.5V26v-3.2
	v-3.2v-3.2v-3.2v-2.5c0-0.4-0.3-0.7-0.7-0.7C89.3,10,68.3,10,68.3,10z M86.8,16.4v3.2v3.2V26v2.8c0,0.2-0.2,0.4-0.4,0.4H71.2
	c-0.2,0-0.4-0.2-0.4-0.4V26v-3.2v-3.2v-3.2v-2.8c0-0.2,0.2-0.4,0.4-0.4h15.2c0.2,0,0.4,0.2,0.4,0.4V16.4z"/>
<path d="M83.6,22.8v-3.2v-2.5c0-0.4-0.3-0.7-0.7-0.7h-8.2c-0.4,0-0.7,0.3-0.7,0.7v2.5v3.2v2.5c0,0.4,0.3,0.7,0.7,0.7h8.2
	c0.4,0,0.7-0.3,0.7-0.7V22.8z"/>
<path d="M10.7,67.6c-0.4,0-0.7,0.3-0.7,0.7v2.5V74v3.2v3.2v3.2v3.2v2.5c0,0.4,0.3,0.7,0.7,0.7h21c0.4,0,0.7-0.3,0.7-0.7v-2.5v-3.2
	v-3.2v-3.2V74v-3.2v-2.5c0-0.4-0.3-0.7-0.7-0.7C31.7,67.6,10.7,67.6,10.7,67.6z M29.2,74v3.2v3.2v3.2v2.8c0,0.2-0.2,0.4-0.4,0.4
	H13.6c-0.2,0-0.4-0.2-0.4-0.4v-2.8v-3.2v-3.2V74v-2.8c0-0.2,0.2-0.4,0.4-0.4h15.2c0.2,0,0.4,0.2,0.4,0.4V74z"/>
<path d="M26,80.4v-3.2v-2.5c0-0.4-0.3-0.7-0.7-0.7h-8.2c-0.4,0-0.7,0.3-0.7,0.7v2.5v3.2v2.5c0,0.4,0.3,0.7,0.7,0.7h8.2
	c0.4,0,0.7-0.3,0.7-0.7V80.4z"/>
</svg>
